# Blender v2.74 (sub 0) OBJ File: 'Save.blend'
# www.blender.org
mtllib L2PINE_03.mtl
o Cylinder.001
v 0.401182 5.005017 -0.580896
v 0.066121 4.996792 -0.777886
v -0.214746 4.920875 -0.654388
v -0.348549 4.960711 -0.322505
v -0.173330 4.935522 0.029624
v 0.131806 5.020957 0.208925
v 0.450172 4.991884 0.096456
v 0.577324 5.099608 -0.298322
v 0.179717 6.182088 -0.361747
v 0.289075 4.360746 -0.785194
v -0.128769 4.349501 -0.878976
v -0.432446 4.356843 -0.633807
v -0.372838 4.364748 -0.210696
v -0.125535 4.440705 0.246421
v 0.302351 4.400527 0.294194
v 0.601255 4.460628 -0.403423
v 0.182151 5.393134 -0.469399
v 0.112919 5.407091 -0.476212
v 0.022167 5.463815 -0.427390
v 0.072942 5.404133 -0.363415
v 0.106186 5.444292 -0.244426
v 0.199773 5.378793 -0.307613
v 0.253795 5.404403 -0.413346
v 0.402718 4.039433 -0.918815
v -0.237745 4.001866 -1.052628
v -0.670200 3.784945 -0.720671
v -0.646429 3.963414 -0.215183
v -0.306751 3.931027 0.355658
v 0.276867 4.047022 0.547988
v 0.672922 3.784374 0.277897
v 0.843511 4.104109 -0.400963
v 0.236566 4.570984 -0.028594
v -0.075690 4.461847 -0.493071
v 0.385885 4.619044 -0.350737
v 0.054996 4.471824 -0.114808
v 0.057870 4.558323 -0.605650
v 0.376870 4.555802 -0.155403
v 0.258468 4.566362 -0.528465
v -0.075491 4.495217 -0.293627
v 1.074438 3.189765 0.095150
v 0.865713 3.232852 -0.659532
v 0.188700 3.094640 -1.130454
v -0.583216 2.996897 -1.000618
v -0.992421 2.935359 -0.421207
v -0.852226 2.942771 0.330784
v -0.131989 2.911029 0.815311
v 0.587775 3.111467 0.715316
v -0.240015 4.112899 -0.104058
v 0.074388 3.990304 -0.831553
v 0.416721 4.012676 0.150181
v -0.413644 4.079545 -0.501030
v 0.424974 3.958153 -0.546323
v 0.049518 4.004695 0.167297
v 0.559715 3.973182 -0.142634
v -0.247569 4.029166 -0.794640
v -1.004022 1.967608 -0.539654
v -1.026218 2.058582 0.293133
v -0.409496 2.197149 0.950346
v 0.422107 1.942160 1.010457
v 1.074826 1.928129 0.462403
v 1.090197 1.956386 -0.360164
v 0.515617 1.980240 -1.042525
v -0.366391 1.952150 -1.134036
v -0.295156 2.945422 0.425624
v -0.334254 3.079690 -0.721462
v 0.528992 3.082356 0.088486
v -0.594130 2.835042 0.017048
v 0.169383 3.058668 -0.675304
v 0.216076 3.064460 0.435299
v -0.570737 2.881267 -0.427491
v 0.532539 3.176491 -0.356447
v -0.714417 0.885711 -1.185605
v -1.189617 1.030172 -0.643730
v -1.240097 1.082464 0.383060
v -0.496051 1.004644 1.131347
v 0.517915 1.081326 1.260535
v 1.235687 1.012512 0.616405
v 1.265969 0.979248 -0.431194
v 0.358773 0.786001 -1.344250
v 0.200410 1.741488 -0.808717
v -0.672802 1.916856 0.169859
v 0.334235 1.937963 0.642043
v -0.706865 1.966837 -0.416920
v 0.736811 1.924442 -0.319939
v -0.421391 1.860787 -0.776980
v -0.262165 1.935925 0.613878
v 0.760074 1.955605 0.257004
vn 0.337300 0.404000 0.850300
vn 0.780600 0.253300 -0.571400
vn -0.545300 0.387800 0.743200
vn 0.486500 0.247500 -0.837900
vn 0.864400 0.339300 0.371000
vn -0.453600 0.333600 -0.826400
vn -0.821200 0.369200 0.435100
vn 0.691400 0.263100 -0.672900
vn 0.121700 0.473100 0.872500
vn -0.511900 0.381300 -0.769800
vn -0.856200 0.390500 0.338200
vn 0.851000 0.329400 0.409000
vn 0.194100 0.307700 -0.931500
vn -0.572700 0.708800 0.411900
vn 0.738000 0.549200 0.392200
vn -0.696000 0.693900 -0.184900
vn -0.409800 0.699500 0.585500
vn -0.652100 0.667400 -0.359800
vn 0.660200 0.560900 0.499600
vn 0.166600 0.588300 -0.791300
vn 0.524300 0.374000 -0.765000
vn 0.902200 0.427800 0.054800
vn -0.707600 0.510300 0.488800
vn -0.848200 0.484200 0.214500
vn -0.469300 0.509500 0.721200
vn -0.159300 0.267200 -0.950400
vn 0.830000 0.506300 -0.233800
vn -0.007600 0.519600 0.854400
vn -0.781800 0.358000 -0.510600
vn 0.599500 0.468500 0.648900
vn -0.707000 0.322900 -0.629200
vn 0.575000 0.543100 0.611900
vn 0.661900 0.365900 -0.654300
vn -0.891000 0.451600 -0.047600
vn 0.006500 0.507100 0.861900
vn 0.091100 0.343400 -0.934800
vn -0.599300 0.522800 0.606200
vn -0.860100 0.510000 -0.009500
vn -0.610700 0.461700 -0.643300
vn -0.108000 0.535300 0.837700
vn -0.043600 0.441400 -0.896300
vn 0.883500 0.468200 -0.014800
vn 0.563200 0.441400 -0.698500
vn 0.581500 0.578000 -0.572500
vn 0.692600 0.520100 0.499800
vn -0.851200 0.355800 -0.385900
vn -0.896800 0.370100 0.242600
usemtl FOLHAS
s off
f 9//1 6//1 7//1
f 8//2 1//2 9//2
f 5//3 6//3 9//3
f 2//4 9//4 1//4
f 8//5 9//5 7//5
f 3//6 9//6 2//6
f 4//7 5//7 9//7
f 16//8 10//8 17//8 23//8
f 14//9 15//9 22//9 21//9
f 11//10 12//10 19//10 18//10
f 13//11 14//11 21//11 20//11
f 15//12 16//12 23//12 22//12
f 10//13 11//13 18//13 17//13
f 27//14 28//14 35//14 39//14
f 30//15 31//15 34//15 37//15
f 26//16 27//16 39//16 33//16
f 28//17 29//17 32//17 35//17
f 25//18 26//18 33//18 36//18
f 29//19 30//19 37//19 32//19
f 24//20 25//20 36//20 38//20
f 41//21 42//21 49//21 52//21
f 60//22 61//22 71//22 66//22
f 57//23 58//23 64//23 67//23
f 44//24 45//24 48//24 51//24
f 45//25 46//25 53//25 48//25
f 42//26 43//26 55//26 49//26
f 40//27 41//27 52//27 54//27
f 46//28 47//28 50//28 53//28
f 43//29 44//29 51//29 55//29
f 59//30 60//30 66//30 69//30
f 56//31 70//31 65//31 63//31
f 76//32 77//32 87//32 82//32
f 61//33 62//33 68//33 71//33
f 56//34 57//34 67//34 70//34
f 58//35 59//35 69//35 64//35
f 62//36 63//36 65//36 68//36
f 74//37 75//37 86//37 81//37
f 73//38 74//38 81//38 83//38
f 72//39 73//39 83//39 85//39
f 75//40 76//40 82//40 86//40
f 72//41 85//41 80//41 79//41
f 77//42 78//42 84//42 87//42
f 78//43 79//43 80//43 84//43
f 31//44 24//44 38//44 34//44
f 47//45 40//45 54//45 50//45
f 9//46 3//46 4//46
f 12//47 13//47 20//47 19//47
o Cylinder
v -0.000000 -0.106455 -0.246727
v 0.099768 4.539659 -0.645243
v 0.234651 -0.106455 -0.076243
v 0.349515 4.539659 -0.463792
v 0.145022 -0.106455 0.199606
v 0.254120 4.539659 -0.170197
v -0.145022 -0.106455 0.199606
v -0.054584 4.539659 -0.170197
v -0.234651 -0.106455 -0.076243
v -0.149979 4.539659 -0.463792
vn 0.585800 -0.081700 -0.806300
vn 0.951100 0.002300 0.309000
vn -0.000000 0.079300 0.996800
vn -0.586800 -0.056700 -0.807700
vn -0.950200 0.043100 0.308700
usemtl MADEIRA
s off
f 89//48 91//48 90//48 88//48
f 90//49 91//49 93//49 92//49
f 92//50 93//50 95//50 94//50
f 96//51 97//51 89//51 88//51
f 94//52 95//52 97//52 96//52
