# Blender v2.74 (sub 0) OBJ File: 'Save.blend'
# www.blender.org
mtllib Tronco_01LP.mtl
o Cylinder.005
v 0.057986 0.356977 1.143925
v 0.258890 0.228325 1.098030
v 0.349862 0.301452 3.709504
v 0.159290 -0.031080 1.084226
v 0.167701 -0.062998 3.766307
v -0.131826 -0.032010 1.082904
v -0.210825 0.227967 1.097521
v -0.164297 0.230288 3.721241
v 0.053159 0.451669 3.739197
v -0.107738 -0.043060 3.753002
v 0.098527 0.213984 3.697266
v 0.038401 0.156588 1.115970
vn -0.969200 -0.245900 0.012500
vn -0.583700 0.811900 -0.010400
vn -0.033300 -0.999400 -0.007800
vn 0.484400 0.874100 -0.036200
vn 0.910900 -0.412400 -0.013900
vn 0.109300 0.126900 -0.985900
vn 0.097900 0.085500 -0.991500
vn 0.003900 0.169200 -0.985600
vn -0.111500 0.095500 -0.989200
vn -0.128400 0.149300 -0.980400
vn 0.079900 -0.158400 0.984100
vn 0.098300 0.134900 0.986000
vn -0.029900 0.234700 0.971600
vn -0.120900 0.211600 0.969900
vn 0.011700 -0.171500 0.985100
usemtl MADEIRA
s off
f 6//1 10//1 8//1 7//1
f 8//2 9//2 1//2 7//2
f 5//3 10//3 6//3 4//3
f 1//4 9//4 3//4 2//4
f 3//5 5//5 4//5 2//5
usemtl Material.006
f 7//6 1//6 12//6
f 6//7 7//7 12//7
f 4//8 6//8 12//8
f 2//9 4//9 12//9
f 1//10 2//10 12//10
f 9//11 8//11 11//11
f 8//12 10//12 11//12
f 10//13 5//13 11//13
f 5//14 3//14 11//14
f 3//15 9//15 11//15
