# Blender v2.74 (sub 0) OBJ File: 'Save.blend'
# www.blender.org
mtllib Tronco_01.mtl
o Cylinder.002
v -0.000000 0.402871 -0.262599
v 0.234651 0.232387 -0.262599
v 0.260675 0.270926 2.469030
v 0.145022 -0.043462 -0.262599
v 0.143424 -0.089936 2.469030
v -0.145022 -0.043462 -0.262599
v -0.234651 0.232387 -0.262599
v -0.259711 0.240530 2.469030
v -0.000000 0.391499 0.703502
v 0.271740 0.194068 0.703502
v 0.167945 -0.075012 0.703502
v -0.167945 -0.075011 0.703502
v -0.271740 0.244439 0.703502
v 0.243179 0.235158 0.049079
v 0.150293 -0.050716 0.049079
v -0.150293 -0.050716 0.049079
v -0.243179 0.235158 0.049079
v -0.000000 0.411838 0.049079
v -0.000000 0.418744 2.469030
v -0.154352 -0.056302 2.469030
v 0.009964 0.152907 2.469030
v -0.000000 0.156145 -0.262599
v 0.234211 0.232244 1.880521
v 0.240890 0.234415 1.292011
v 0.144750 -0.043087 1.880521
v 0.148878 -0.048768 1.292011
v -0.234211 0.232245 1.880521
v -0.240890 0.234415 1.292011
v -0.000000 0.409431 1.292011
v -0.000000 0.402409 1.880521
v -0.144750 -0.043087 1.880521
v -0.148878 -0.048768 1.292011
vn 0.950800 -0.308900 -0.022500
vn -0.950400 -0.308800 -0.037100
vn -0.532300 0.846600 -0.004500
vn -0.000000 -0.999300 -0.037100
vn 0.941400 -0.333600 -0.049900
vn 0.587600 0.808800 0.025100
vn 0.587600 0.808800 -0.023300
vn 0.950800 -0.308900 -0.023300
vn -0.000000 -0.999700 -0.023300
vn -0.587600 0.808800 -0.023300
vn -0.950800 -0.308900 -0.023300
vn 0.539900 0.840200 -0.051400
vn -0.057100 -0.997000 -0.051400
vn -0.576100 0.816800 -0.029600
vn -0.946200 -0.322200 -0.029600
vn -0.950100 -0.308700 0.044500
vn -0.951000 -0.309000 0.009700
vn -0.532000 0.846700 0.008300
vn -0.587800 0.809000 0.009700
vn -0.000000 -0.999000 0.044500
vn -0.000000 -1.000000 0.009700
vn 0.587600 0.808800 -0.024600
vn 0.587800 0.809000 0.009700
vn 0.940900 -0.333600 0.058800
vn 0.951000 -0.309000 0.009700
vn 0.000000 -0.000000 -1.000000
vn -0.000000 0.000000 1.000000
usemtl MADEIRA
s off
f 23//1 3//1 5//1 25//1
f 16//2 12//2 13//2 17//2
f 17//3 13//3 9//3 18//3
f 15//4 11//4 12//4 16//4
f 14//5 10//5 11//5 15//5
f 18//6 9//6 10//6 14//6
f 1//7 18//7 14//7 2//7
f 2//8 14//8 15//8 4//8
f 4//9 15//9 16//9 6//9
f 7//10 17//10 18//10 1//10
f 6//11 16//11 17//11 7//11
f 30//12 19//12 3//12 23//12
f 25//13 5//13 20//13 31//13
f 27//14 8//14 19//14 30//14
f 31//15 20//15 8//15 27//15
f 12//16 32//16 28//16 13//16
f 32//17 31//17 27//17 28//17
f 13//18 28//18 29//18 9//18
f 28//19 27//19 30//19 29//19
f 11//20 26//20 32//20 12//20
f 26//21 25//21 31//21 32//21
f 9//22 29//22 24//22 10//22
f 29//23 30//23 23//23 24//23
f 10//24 24//24 26//24 11//24
f 24//25 23//25 25//25 26//25
usemtl Material.006
f 7//26 1//26 22//26
f 6//26 7//26 22//26
f 4//26 6//26 22//26
f 2//26 4//26 22//26
f 1//26 2//26 22//26
f 19//27 8//27 21//27
f 8//27 20//27 21//27
f 20//27 5//27 21//27
f 5//27 3//27 21//27
f 3//27 19//27 21//27
