# Blender v2.74 (sub 0) OBJ File: 'Save.blend'
# www.blender.org
mtllib L3PINE_01.mtl
o Cylinder.004
v -0.000000 -0.106455 -0.246727
v 0.099768 4.539659 -0.645243
v 0.145022 -0.106455 0.199606
v 0.254120 4.539659 -0.170197
v -0.145022 -0.106455 0.199606
v -0.054584 4.539659 -0.170197
vn -0.000000 0.079300 0.996800
vn -0.951000 -0.006100 -0.309000
vn 0.950000 -0.046900 -0.308700
usemtl MADEIRA
s off
f 3//1 4//1 6//1 5//1
f 5//2 6//2 2//2 1//2
f 2//3 4//3 3//3 1//3
o Cylinder.003
v 0.401182 5.005017 -0.580896
v -0.214746 4.920875 -0.654388
v -0.173330 4.935522 0.029624
v 0.450172 4.991884 0.096456
v 0.179717 6.182088 -0.361747
v -0.128769 4.349501 -0.878976
v -0.372838 4.364748 -0.210696
v 0.302351 4.400527 0.294194
v 0.601255 4.460628 -0.403423
v 0.112919 5.407091 -0.476212
v 0.072942 5.404133 -0.363415
v 0.199773 5.378793 -0.307613
v 0.253795 5.404403 -0.413346
v -0.237745 4.001866 -1.052628
v -0.646429 3.963414 -0.215183
v 0.276867 4.047022 0.547988
v 0.843511 4.104109 -0.400963
v 0.236566 4.570984 -0.028594
v 0.385885 4.619044 -0.350737
v 0.057870 4.558323 -0.605650
v -0.075491 4.495217 -0.293627
v 0.865713 3.232852 -0.659532
v -0.583216 2.996897 -1.000618
v -0.852226 2.942771 0.330784
v 0.587775 3.111467 0.715316
v -0.240015 4.112899 -0.104058
v 0.416721 4.012676 0.150181
v 0.424974 3.958153 -0.546323
v -0.247569 4.029166 -0.794640
v -1.026218 2.058582 0.293133
v 0.422107 1.942160 1.010457
v 1.090197 1.956386 -0.360164
v -0.366391 1.952150 -1.134036
v -0.334254 3.079690 -0.721462
v -0.594130 2.835042 0.017048
v 0.216076 3.064460 0.435299
v 0.532539 3.176491 -0.356447
v -0.714417 0.885711 -1.185605
v -1.240097 1.082464 0.383060
v 0.517915 1.081326 1.260535
v 1.265969 0.979248 -0.431194
v -0.672802 1.916856 0.169859
v 0.334235 1.937963 0.642043
v 0.736811 1.924442 -0.319939
v -0.421391 1.860787 -0.776980
vn -0.956500 0.287100 0.051800
vn 0.089300 0.198500 -0.976000
vn -0.130100 0.330300 0.934900
vn -0.885700 0.329400 -0.327300
vn 0.978200 0.196500 -0.066900
vn -0.534600 0.374300 0.757700
vn 0.851000 0.329400 0.409000
vn 0.498600 0.192300 -0.845200
vn 0.452500 0.430800 -0.780800
vn 0.701300 0.559800 0.441300
vn -0.546600 0.622300 0.560300
vn -0.271900 0.464700 0.842700
vn -0.425700 0.411900 0.805700
vn 0.417600 0.248500 -0.874000
vn -0.704800 0.654200 -0.274500
vn 0.913600 0.382200 0.138600
vn -0.916100 0.381400 -0.124000
vn 0.249400 0.187500 -0.950100
vn 0.836800 0.371000 0.402700
vn -0.897900 0.245100 -0.365700
vn -0.846800 0.435600 -0.305400
vn 0.836000 0.427600 0.343900
vn -0.388500 0.476100 0.788900
vn 0.332800 0.284300 -0.899100
usemtl FOLHAS
s off
f 11//4 8//4 9//4
f 8//5 11//5 7//5
f 9//6 10//6 11//6
f 12//7 13//7 17//7 16//7
f 11//8 10//8 7//8
f 13//9 14//9 18//9 17//9
f 14//10 15//10 19//10 18//10
f 12//11 16//11 19//11 15//11
f 23//12 20//12 26//12 25//12
f 22//13 23//13 25//13 24//13
f 21//14 22//14 24//14 27//14
f 30//15 31//15 33//15 32//15
f 36//16 37//16 42//16 41//16
f 38//17 39//17 40//17 43//17
f 20//18 21//18 27//18 26//18
f 31//19 28//19 34//19 33//19
f 29//20 30//20 32//20 35//20
f 28//21 29//21 35//21 34//21
f 37//22 38//22 43//22 42//22
f 36//23 41//23 40//23 39//23
f 44//24 45//24 48//24 51//24
f 46//25 47//25 50//25 49//25
f 45//26 46//26 49//26 48//26
f 47//27 44//27 51//27 50//27
