# Blender v2.74 (sub 0) OBJ File: 'Save.blend'
# www.blender.org
mtllib Rock_01.mtl
o Cube.002_Cube.007
v 0.946903 0.050217 -0.894983
v 0.943880 0.090720 -0.907882
v 0.803072 0.050217 -0.935542
v 0.815630 0.090720 -0.969205
v 0.989101 0.047369 -1.025434
v 0.961316 0.085952 -1.024015
v 0.801122 0.048511 -1.062961
v 0.839349 0.087187 -1.046880
v 0.897951 0.091850 -0.898905
v 0.904245 0.051335 -0.881744
v 0.871647 0.078547 -1.049685
v 0.900403 0.040556 -1.057226
v 0.808445 0.101334 -1.000932
v 0.807754 0.056856 -0.995184
v 0.973929 0.094229 -0.955800
v 0.986353 0.048695 -0.954901
v 0.897773 0.093713 -0.972867
v 0.388392 0.050217 -0.833679
v 0.385370 0.090720 -0.846579
v 0.244561 0.050217 -0.874239
v 0.257119 0.090720 -0.907902
v 0.430590 0.047369 -0.964131
v 0.402805 0.085952 -0.962712
v 0.298364 0.048511 -0.991940
v 0.316180 0.087187 -0.986737
v 0.339440 0.091850 -0.837602
v 0.345734 0.051335 -0.820441
v 0.358917 0.078547 -1.017204
v 0.372549 0.040556 -1.013920
v 0.249934 0.101334 -0.939629
v 0.249244 0.056856 -0.933881
v 0.415418 0.094229 -0.894497
v 0.427842 0.048695 -0.893597
v 0.339262 0.114684 -0.911564
v 0.515650 -0.012987 -0.526423
v 0.495527 0.112337 -0.535803
v 0.356129 0.050217 -0.566157
v 0.360675 0.090720 -0.584520
v 0.553983 0.047369 -0.678628
v 0.526198 0.085952 -0.677209
v 0.421757 0.048511 -0.706438
v 0.439573 0.087187 -0.701234
v 0.389896 0.093622 -0.536268
v 0.423415 0.004229 -0.506910
v 0.482309 0.078547 -0.731701
v 0.495942 0.040556 -0.728418
v 0.363302 0.101334 -0.634984
v 0.366035 0.056856 -0.635772
v 0.541199 0.094229 -0.607743
v 0.552593 0.048695 -0.607384
v 0.462655 0.084553 -0.626061
v 0.732138 0.048452 -0.978242
v 0.726157 0.091229 -0.971406
v 0.655369 0.047416 -0.836577
v 0.637594 0.091518 -0.846985
v 0.598898 0.047369 -1.065457
v 0.592394 0.085952 -1.038407
v 0.497550 0.045558 -0.915779
v 0.492354 0.087671 -0.916136
v 0.717168 0.092749 -0.929896
v 0.733654 0.048634 -0.934448
v 0.521383 0.078263 -1.019376
v 0.529014 0.036897 -1.032601
v 0.585703 0.103075 -0.865283
v 0.586154 0.055534 -0.870264
v 0.663265 0.094229 -1.033130
v 0.666835 0.048695 -1.043955
v 0.625646 0.136131 -0.966288
v 0.307127 0.050217 -1.064470
v 0.294495 0.090720 -1.068467
v 0.198733 0.050217 -0.961594
v 0.176224 0.090720 -0.989598
v 0.216587 0.047369 -1.167431
v 0.203601 0.085952 -1.142826
v 0.088230 0.048511 -1.025063
v 0.121594 0.087187 -1.049694
v 0.278728 0.091850 -1.024405
v 0.296695 0.051336 -1.021041
v 0.135696 0.078547 -1.078886
v 0.143917 0.040556 -1.107455
v 0.145283 0.101334 -0.999643
v 0.149870 0.056856 -0.996111
v 0.268676 0.094229 -1.118790
v 0.275801 0.048695 -1.129008
v 0.215073 0.093713 -1.062065
v 0.074268 0.050217 -0.553129
v 0.061637 0.090720 -0.557127
v -0.034125 0.050217 -0.450254
v -0.056635 0.090720 -0.478257
v -0.016271 0.047369 -0.656090
v -0.029257 0.085952 -0.631485
v -0.107773 0.048511 -0.556669
v -0.094193 0.087187 -0.569321
v 0.045870 0.091850 -0.513064
v 0.063836 0.051336 -0.509700
v -0.098527 0.078547 -0.621626
v -0.088735 0.040556 -0.631664
v -0.087576 0.101334 -0.488302
v -0.082989 0.056856 -0.484771
v 0.035817 0.094229 -0.607450
v 0.042942 0.048695 -0.617667
v -0.017786 0.114684 -0.550725
v 0.392211 0.050217 -0.497793
v 0.385045 0.090720 -0.492912
v 0.287689 0.050217 -0.388628
v 0.274232 0.090720 -0.401923
v 0.292183 0.047369 -0.616171
v 0.279197 0.085952 -0.591566
v 0.200681 0.048511 -0.516750
v 0.214262 0.087187 -0.529402
v 0.363859 0.091850 -0.457653
v 0.379564 0.051336 -0.457964
v 0.209927 0.078547 -0.581707
v 0.219719 0.040556 -0.591745
v 0.232204 0.101334 -0.429982
v 0.232924 0.056856 -0.432733
v 0.346568 0.094229 -0.568944
v 0.352702 0.048695 -0.578552
v 0.290668 0.084553 -0.510806
v 0.124547 0.050217 -0.914968
v 0.127200 0.090720 -0.906712
v 0.199659 0.050217 -0.783818
v 0.183098 0.090720 -0.774675
v -0.017305 0.047369 -0.852543
v 0.002618 0.085952 -0.833122
v 0.063043 0.048511 -0.696441
v 0.060321 0.087187 -0.692507
v 0.155020 0.091850 -0.876412
v 0.159167 0.051336 -0.891562
v -0.007536 0.078547 -0.763894
v -0.014391 0.040556 -0.776128
v 0.144290 0.101334 -0.742309
v 0.141855 0.056856 -0.743779
v 0.043387 0.094229 -0.891333
v 0.035908 0.048695 -0.899936
v 0.083322 0.131692 -0.821262
v 0.145984 0.050217 -0.479901
v 0.141797 0.090720 -0.467331
v 0.247216 0.050217 -0.369970
v 0.218876 0.090720 -0.347885
v 0.041671 0.047369 -0.390922
v 0.066078 0.085952 -0.377567
v 0.182090 0.048511 -0.260436
v 0.157964 0.087187 -0.294167
v 0.185617 0.091850 -0.450902
v 0.189252 0.051335 -0.468816
v 0.128987 0.078547 -0.308707
v 0.100546 0.040556 -0.317357
v 0.208366 0.101334 -0.317099
v 0.211967 0.056856 -0.321632
v 0.091091 0.094229 -0.442272
v 0.080982 0.048695 -0.449550
v 0.147002 0.093713 -0.387821
v 0.653760 0.050217 -0.239367
v 0.649572 0.090720 -0.226797
v 0.754991 0.050217 -0.129436
v 0.726652 0.090720 -0.107351
v 0.549447 0.047369 -0.150388
v 0.573853 0.085952 -0.137033
v 0.647478 0.048511 -0.057399
v 0.635033 0.087187 -0.071169
v 0.693392 0.091850 -0.210368
v 0.697027 0.051335 -0.228282
v 0.582668 0.078547 -0.067622
v 0.572779 0.040556 -0.077564
v 0.716142 0.101334 -0.076565
v 0.719742 0.056856 -0.081098
v 0.598866 0.094229 -0.201738
v 0.588757 0.048695 -0.209016
v 0.654777 0.114684 -0.147287
v 0.706430 -0.012987 -0.567737
v 0.718651 0.112337 -0.549201
v 0.821457 0.050217 -0.450285
v 0.807960 0.090720 -0.437030
v 0.594007 0.047369 -0.458206
v 0.618414 0.085952 -0.444851
v 0.692039 0.048511 -0.365217
v 0.679593 0.087187 -0.378987
v 0.808366 0.093622 -0.493439
v 0.795208 0.004229 -0.536009
v 0.627228 0.078547 -0.375440
v 0.617339 0.040556 -0.385382
v 0.779272 0.101334 -0.395430
v 0.776532 0.056856 -0.396191
v 0.642048 0.094229 -0.511873
v 0.632534 0.048695 -0.518152
v 0.699338 0.084553 -0.455105
v 0.285244 0.048452 -0.296426
v 0.293920 0.091229 -0.299113
v 0.424876 0.047416 -0.376834
v 0.434559 0.091518 -0.358654
v 0.353001 0.047369 -0.152314
v 0.372719 0.085952 -0.171942
v 0.517765 0.045558 -0.226664
v 0.522004 0.087671 -0.223636
v 0.323333 0.092749 -0.329753
v 0.306907 0.048634 -0.334517
v 0.443169 0.078263 -0.150929
v 0.429738 0.036897 -0.143666
v 0.469159 0.103075 -0.315872
v 0.466164 0.055534 -0.311866
v 0.315129 0.094229 -0.213583
v 0.306415 0.048695 -0.206235
v 0.382201 0.136131 -0.250790
v 0.601999 0.050217 -0.000224
v 0.610661 0.090720 0.009801
v 0.748232 0.050217 -0.031022
v 0.752724 0.090720 0.004625
v 0.625139 0.047369 0.134916
v 0.649095 0.085952 0.120769
v 0.809073 0.048511 0.080950
v 0.767748 0.087187 0.084439
v 0.647184 0.091850 -0.019460
v 0.633647 0.051336 -0.031742
v 0.740439 0.078547 0.101908
v 0.718463 0.040556 0.121929
v 0.773809 0.101334 0.029397
v 0.771754 0.056856 0.023986
v 0.606273 0.094229 0.066191
v 0.594850 0.048695 0.071158
v 0.681656 0.093713 0.045978
v 1.068326 0.050217 -0.313644
v 1.076988 0.090720 -0.303619
v 1.214559 0.050217 -0.344442
v 1.219051 0.090720 -0.308795
v 1.091465 0.047369 -0.178504
v 1.115421 0.085952 -0.192652
v 1.221502 0.048511 -0.215213
v 1.203305 0.087187 -0.211557
v 1.113510 0.091850 -0.332880
v 1.099973 0.051336 -0.345162
v 1.179581 0.078547 -0.164740
v 1.165981 0.040556 -0.161324
v 1.240135 0.101334 -0.284023
v 1.238080 0.056856 -0.289435
v 1.072600 0.094229 -0.247229
v 1.061176 0.048695 -0.242262
v 1.147982 0.114684 -0.267442
v 0.826561 0.050217 -0.527418
v 0.835223 0.090720 -0.527819
v 0.972793 0.050217 -0.565602
v 0.977285 0.090720 -0.547225
v 0.849700 0.047369 -0.374175
v 0.873656 0.085952 -0.388323
v 0.979737 0.048511 -0.410884
v 0.961540 0.087187 -0.407228
v 0.871745 0.091850 -0.546742
v 0.858208 0.051336 -0.554709
v 0.937816 0.078547 -0.360411
v 0.924216 0.040556 -0.356995
v 0.998370 0.101334 -0.501302
v 0.996315 0.056856 -0.499336
v 0.828139 0.094229 -0.442901
v 0.817879 0.048695 -0.437934
v 0.906217 0.084553 -0.463113
v 0.835850 0.050217 -0.031846
v 0.837918 0.090720 -0.040267
v 0.840625 0.050217 -0.182906
v 0.859521 0.090720 -0.182012
v 0.989375 0.047369 -0.010658
v 0.982588 0.085952 -0.037639
v 1.002769 0.048511 -0.185712
v 1.007149 0.087187 -0.187636
v 0.830108 0.091850 -0.080653
v 0.818635 0.051336 -0.069925
v 1.027520 0.078547 -0.091273
v 1.026946 0.040556 -0.077262
v 0.909535 0.101334 -0.189234
v 0.910838 0.056856 -0.186707
v 0.917357 0.094229 -0.009434
v 0.919217 0.048695 0.001812
v 0.920074 0.131692 -0.090040
vn 0.174400 0.959300 -0.222300
vn -0.858900 0.435500 -0.269400
vn 0.269700 0.306000 -0.913000
vn 0.815800 0.231500 0.530000
vn 0.057500 0.287500 -0.956100
vn 0.002100 0.999000 0.044500
vn -0.492600 0.489500 0.719500
vn 0.235400 0.361800 0.902100
vn -0.006500 0.987400 -0.157900
vn 0.898000 0.429900 -0.093600
vn -0.981500 0.181400 0.061100
vn -0.030800 0.992400 0.119300
vn -0.039700 0.942300 -0.332500
vn -0.652000 0.140200 -0.745200
vn 0.650500 0.335200 -0.681500
vn -0.403500 0.044900 -0.913900
vn 0.153100 0.957500 0.244500
vn 0.240300 0.942800 -0.231100
vn -0.253800 0.917000 0.307900
vn 0.173300 0.984700 -0.018700
vn -0.694000 0.176200 -0.698000
vn 0.841800 0.184200 0.507300
vn -0.403600 0.044900 -0.913900
vn -0.122400 0.960200 -0.251000
vn -0.722800 0.090500 0.685100
vn 0.092400 0.199100 0.975600
vn -0.088900 0.992500 -0.083300
vn 0.899800 0.420600 -0.115700
vn -0.994600 -0.000300 -0.103800
vn 0.082800 0.995000 0.055400
vn -0.344200 0.938900 -0.007500
vn -0.458600 -0.074600 0.885500
vn -0.362700 0.367300 -0.856400
vn 0.691600 0.212800 -0.690300
vn -0.960800 -0.108300 -0.255200
vn 0.392100 0.899700 -0.191900
vn 0.712000 0.318100 0.626000
vn 0.967600 0.239700 0.080000
vn -0.145100 0.842300 -0.519100
vn 0.143700 0.420600 -0.895800
vn -0.397700 -0.024800 0.917200
vn 0.229800 0.918900 0.320600
vn -0.101800 0.959300 -0.263500
vn -0.670700 0.435500 0.600400
vn -0.646800 0.306000 -0.698600
vn 0.872600 0.231500 -0.430100
vn -0.792200 0.287500 -0.538200
vn 0.039300 0.999000 0.021000
vn 0.366500 0.489500 0.791300
vn 0.895600 0.361800 0.258900
vn -0.139000 0.987400 -0.075200
vn 0.378700 0.429900 -0.819600
vn -0.449300 0.181400 0.874800
vn 0.086800 0.992400 0.087500
vn -0.306000 0.942300 -0.135900
vn -0.973700 0.140200 0.179300
vn -0.253100 0.335300 -0.907500
vn -0.991700 0.044900 -0.120400
vn 0.288400 0.957500 -0.006600
vn -0.075800 0.942800 -0.324700
vn 0.134800 0.917000 0.375500
vn 0.072500 0.984700 -0.158500
vn -0.954700 0.176200 0.239600
vn 0.876700 0.208500 -0.433400
vn -0.071300 0.996900 0.032400
vn 0.535300 0.318100 0.782500
vn 0.890600 0.226100 0.394500
vn -0.117100 0.992500 0.033800
vn 0.360600 0.420600 -0.832500
vn -0.597700 -0.000300 0.801700
vn 0.061900 0.997000 -0.047100
vn -0.182400 0.938900 0.291900
vn 0.517200 -0.053700 0.854200
vn -0.942000 0.335200 -0.014100
vn -0.167500 0.208500 -0.963600
vn -0.710600 -0.108300 0.695300
vn 0.073000 0.913400 -0.400500
vn 0.902000 0.318100 -0.291800
vn 0.630500 0.226100 -0.742500
vn -0.481800 0.872100 -0.085200
vn -0.696400 0.420600 -0.581500
vn 0.599700 -0.000300 0.800200
vn 0.393000 0.918900 -0.033500
vn -0.265000 0.959300 0.097900
vn 0.590300 0.435500 0.679700
vn -0.708300 0.306000 0.636200
vn -0.416900 0.231500 -0.879000
vn -0.550100 0.287500 0.784100
vn 0.021600 0.999000 -0.039000
vn 0.796700 0.489500 -0.354600
vn 0.272300 0.361800 -0.891600
vn -0.077200 0.987400 0.137800
vn -0.813900 0.429900 -0.391000
vn 0.867900 0.181400 0.462400
vn 0.088800 0.992400 -0.085400
vn -0.140500 0.942300 0.303900
vn 0.164600 0.140200 0.976300
vn -0.911200 0.335200 0.239500
vn -0.135300 0.044900 0.989800
vn -0.002200 0.957500 -0.288400
vn -0.325800 0.942800 0.070900
vn 0.377500 0.917000 -0.129200
vn -0.157400 0.984700 -0.074900
vn 0.225200 0.176200 0.958300
vn -0.911200 0.335300 0.239500
vn -0.451000 0.184200 -0.873300
vn -0.027300 0.960200 0.277900
vn 0.974600 0.090500 -0.204600
vn 0.432700 0.199100 -0.879300
vn 0.032000 0.992500 0.117600
vn -0.827000 0.420600 -0.373100
vn 0.792600 -0.000300 0.609800
vn -0.041400 0.995000 -0.090600
vn 0.289200 0.938900 0.186800
vn 0.854700 -0.074600 -0.513800
vn -0.140000 0.367300 0.919500
vn -0.950700 0.212800 0.225400
vn 0.684500 -0.108300 0.721000
vn -0.434500 0.899700 -0.042200
vn -0.278200 0.318100 -0.906300
vn -0.782100 0.239700 -0.575300
vn -0.148500 0.842300 0.518200
vn -0.591900 0.420600 0.687600
vn 0.819500 -0.024800 -0.572600
vn -0.027600 0.918900 -0.393500
vn -0.051400 0.959300 0.277800
vn 0.885900 0.435500 -0.159800
vn 0.184600 0.306000 0.934000
vn -0.968600 0.231500 -0.091100
vn 0.392600 0.287500 0.873600
vn -0.022500 0.999000 -0.038500
vn 0.102600 0.489500 -0.866000
vn -0.627000 0.361800 -0.689900
vn 0.079000 0.987400 0.136900
vn -0.752100 0.429900 0.499500
vn 0.841100 0.181400 -0.509500
vn -0.028000 0.992400 -0.120000
vn 0.189400 0.942300 0.276100
vn 0.923300 0.140200 0.357700
vn -0.260100 0.335300 0.905500
vn 0.781500 0.044900 0.622300
vn -0.249000 0.957500 -0.145500
vn -0.105600 0.942800 0.316200
vn 0.082000 0.917000 -0.390500
vn -0.144900 0.984700 0.097000
vn 0.938700 0.176200 0.296400
vn -0.260100 0.335200 0.905500
vn -0.973800 0.208500 -0.090400
vn 0.077700 0.996900 0.009800
vn -0.045700 0.318100 -0.947000
vn -0.551700 0.226100 -0.802800
vn 0.117400 0.992500 0.032600
vn -0.743400 0.420600 0.520000
vn 0.929300 -0.000300 -0.369400
vn -0.077400 0.997000 0.007700
vn 0.308400 0.938900 -0.153000
vn 0.007300 -0.053700 -0.998500
vn 0.794900 0.335300 0.505800
vn -0.362400 0.208500 0.908400
vn 0.969500 -0.108300 -0.219700
vn -0.272100 0.913400 0.302800
vn -0.921200 0.318100 -0.224300
vn -0.926100 0.226100 0.301900
vn 0.365600 0.872100 0.325100
vn 0.288300 0.420600 0.860200
vn -0.091300 -0.000300 -0.995800
vn -0.352300 0.918900 -0.177400
usemtl None
s off
f 8//1 13//1 17//1 11//1
f 13//2 8//2 7//2 14//2
f 11//3 6//3 5//3 12//3
f 15//4 2//4 1//4 16//4
f 8//5 11//5 12//5 7//5
f 15//6 17//6 9//6 2//6
f 9//7 4//7 3//7 10//7
f 2//8 9//8 10//8 1//8
f 6//9 11//9 17//9 15//9
f 6//10 15//10 16//10 5//10
f 4//11 13//11 14//11 3//11
f 17//12 13//12 4//12 9//12
f 25//13 30//13 34//13 28//13
f 30//14 25//14 24//14 31//14
f 28//15 23//15 22//15 29//15
f 32//4 19//4 18//4 33//4
f 25//16 28//16 29//16 24//16
f 32//17 34//17 26//17 19//17
f 26//7 21//7 20//7 27//7
f 19//8 26//8 27//8 18//8
f 23//18 28//18 34//18 32//18
f 23//10 32//10 33//10 22//10
f 21//11 30//11 31//11 20//11
f 34//19 30//19 21//19 26//19
f 42//20 47//20 51//20 45//20
f 47//21 42//21 41//21 48//21
f 45//15 40//15 39//15 46//15
f 49//22 36//22 35//22 50//22
f 42//23 45//23 46//23 41//23
f 49//24 51//24 43//24 36//24
f 43//25 38//25 37//25 44//25
f 36//26 43//26 44//26 35//26
f 40//27 45//27 51//27 49//27
f 40//28 49//28 50//28 39//28
f 38//29 47//29 48//29 37//29
f 51//30 47//30 38//30 43//30
f 59//31 64//31 68//31 62//31
f 64//32 59//32 58//32 65//32
f 62//33 57//33 56//33 63//33
f 66//34 53//34 52//34 67//34
f 59//35 62//35 63//35 58//35
f 66//36 68//36 60//36 53//36
f 60//37 55//37 54//37 61//37
f 53//38 60//38 61//38 52//38
f 57//39 62//39 68//39 66//39
f 57//40 66//40 67//40 56//40
f 55//41 64//41 65//41 54//41
f 68//42 64//42 55//42 60//42
f 76//43 81//43 85//43 79//43
f 81//44 76//44 75//44 82//44
f 79//45 74//45 73//45 80//45
f 83//46 70//46 69//46 84//46
f 76//47 79//47 80//47 75//47
f 83//48 85//48 77//48 70//48
f 77//49 72//49 71//49 78//49
f 70//50 77//50 78//50 69//50
f 74//51 79//51 85//51 83//51
f 74//52 83//52 84//52 73//52
f 72//53 81//53 82//53 71//53
f 85//54 81//54 72//54 77//54
f 93//55 98//55 102//55 96//55
f 98//56 93//56 92//56 99//56
f 96//57 91//57 90//57 97//57
f 100//46 87//46 86//46 101//46
f 93//58 96//58 97//58 92//58
f 100//59 102//59 94//59 87//59
f 94//49 89//49 88//49 95//49
f 87//50 94//50 95//50 86//50
f 91//60 96//60 102//60 100//60
f 91//52 100//52 101//52 90//52
f 89//53 98//53 99//53 88//53
f 102//61 98//61 89//61 94//61
f 110//62 115//62 119//62 113//62
f 115//63 110//63 109//63 116//63
f 113//57 108//57 107//57 114//57
f 117//64 104//64 103//64 118//64
f 110//58 113//58 114//58 109//58
f 117//65 119//65 111//65 104//65
f 111//66 106//66 105//66 112//66
f 104//67 111//67 112//67 103//67
f 108//68 113//68 119//68 117//68
f 108//69 117//69 118//69 107//69
f 106//70 115//70 116//70 105//70
f 119//71 115//71 106//71 111//71
f 127//72 132//72 136//72 130//72
f 132//73 127//73 126//73 133//73
f 130//74 125//74 124//74 131//74
f 134//75 121//75 120//75 135//75
f 127//76 130//76 131//76 126//76
f 134//77 136//77 128//77 121//77
f 128//78 123//78 122//78 129//78
f 121//79 128//79 129//79 120//79
f 125//80 130//80 136//80 134//80
f 125//81 134//81 135//81 124//81
f 123//82 132//82 133//82 122//82
f 136//83 132//83 123//83 128//83
f 144//84 149//84 153//84 147//84
f 149//85 144//85 143//85 150//85
f 147//86 142//86 141//86 148//86
f 151//87 138//87 137//87 152//87
f 144//88 147//88 148//88 143//88
f 151//89 153//89 145//89 138//89
f 145//90 140//90 139//90 146//90
f 138//91 145//91 146//91 137//91
f 142//92 147//92 153//92 151//92
f 142//93 151//93 152//93 141//93
f 140//94 149//94 150//94 139//94
f 153//95 149//95 140//95 145//95
f 161//96 166//96 170//96 164//96
f 166//97 161//97 160//97 167//97
f 164//98 159//98 158//98 165//98
f 168//87 155//87 154//87 169//87
f 161//99 164//99 165//99 160//99
f 168//100 170//100 162//100 155//100
f 162//90 157//90 156//90 163//90
f 155//91 162//91 163//91 154//91
f 159//101 164//101 170//101 168//101
f 159//93 168//93 169//93 158//93
f 157//94 166//94 167//94 156//94
f 170//102 166//102 157//102 162//102
f 178//103 183//103 187//103 181//103
f 183//104 178//104 177//104 184//104
f 181//105 176//105 175//105 182//105
f 185//106 172//106 171//106 186//106
f 178//99 181//99 182//99 177//99
f 185//107 187//107 179//107 172//107
f 179//108 174//108 173//108 180//108
f 172//109 179//109 180//109 171//109
f 176//110 181//110 187//110 185//110
f 176//111 185//111 186//111 175//111
f 174//112 183//112 184//112 173//112
f 187//113 183//113 174//113 179//113
f 195//114 200//114 204//114 198//114
f 200//115 195//115 194//115 201//115
f 198//116 193//116 192//116 199//116
f 202//117 189//117 188//117 203//117
f 195//118 198//118 199//118 194//118
f 202//119 204//119 196//119 189//119
f 196//120 191//120 190//120 197//120
f 189//121 196//121 197//121 188//121
f 193//122 198//122 204//122 202//122
f 193//123 202//123 203//123 192//123
f 191//124 200//124 201//124 190//124
f 204//125 200//125 191//125 196//125
f 212//126 217//126 221//126 215//126
f 217//127 212//127 211//127 218//127
f 215//128 210//128 209//128 216//128
f 219//129 206//129 205//129 220//129
f 212//130 215//130 216//130 211//130
f 219//131 221//131 213//131 206//131
f 213//132 208//132 207//132 214//132
f 206//133 213//133 214//133 205//133
f 210//134 215//134 221//134 219//134
f 210//135 219//135 220//135 209//135
f 208//136 217//136 218//136 207//136
f 221//137 217//137 208//137 213//137
f 229//138 234//138 238//138 232//138
f 234//139 229//139 228//139 235//139
f 232//140 227//140 226//140 233//140
f 236//129 223//129 222//129 237//129
f 229//141 232//141 233//141 228//141
f 236//142 238//142 230//142 223//142
f 230//132 225//132 224//132 231//132
f 223//133 230//133 231//133 222//133
f 227//143 232//143 238//143 236//143
f 227//135 236//135 237//135 226//135
f 225//136 234//136 235//136 224//136
f 238//144 234//144 225//144 230//144
f 246//145 251//145 255//145 249//145
f 251//146 246//146 245//146 252//146
f 249//147 244//147 243//147 250//147
f 253//148 240//148 239//148 254//148
f 246//141 249//141 250//141 245//141
f 253//149 255//149 247//149 240//149
f 247//150 242//150 241//150 248//150
f 240//151 247//151 248//151 239//151
f 244//152 249//152 255//152 253//152
f 244//153 253//153 254//153 243//153
f 242//154 251//154 252//154 241//154
f 255//155 251//155 242//155 247//155
f 263//156 268//156 272//156 266//156
f 268//157 263//157 262//157 269//157
f 266//158 261//158 260//158 267//158
f 270//159 257//159 256//159 271//159
f 263//160 266//160 267//160 262//160
f 270//161 272//161 264//161 257//161
f 264//162 259//162 258//162 265//162
f 257//163 264//163 265//163 256//163
f 261//164 266//164 272//164 270//164
f 261//165 270//165 271//165 260//165
f 259//166 268//166 269//166 258//166
f 272//167 268//167 259//167 264//167
