# Blender v2.74 (sub 0) OBJ File: 'Save.blend'
# www.blender.org
mtllib Morro-05.mtl
o Plane.001
v -5.982861 6.820024 11.888061
v -5.982861 6.616438 -3.317503
v 0.923670 6.433630 11.770371
v 1.027377 6.357635 -3.317503
v 0.509632 5.749052 11.765382
v 0.617735 5.457620 -3.317503
v -5.470080 6.314219 5.709685
v -2.639993 6.505295 -3.317503
v -2.639994 6.708881 11.888061
v 4.762336 5.941910 5.254382
v 3.893909 5.920169 5.302722
v 0.003730 6.671404 5.711607
v -5.994992 6.421117 9.459388
v -4.311312 6.768240 -3.317503
v -1.053690 6.661204 11.792027
v 3.623635 6.044165 1.010702
v 0.608311 4.108599 -3.317503
v 3.445302 5.448176 1.018151
v -5.992682 6.497101 1.341648
v 0.547701 4.271995 11.819279
v -0.969066 6.433067 -3.317503
v -4.311312 6.768240 11.888061
v 3.473117 6.184047 9.213544
v 2.926083 5.806331 9.297578
v -0.641000 6.792499 1.160734
v -0.700329 6.744306 9.415869
v -2.370725 6.578944 5.496495
v 2.424896 6.354597 5.697361
v 3.940770 4.238748 5.313550
v 3.241369 4.304222 9.103836
v 3.122539 4.120774 1.043586
v 1.464758 6.612538 9.496908
v -3.156767 6.530929 9.386796
v -3.100293 6.435463 1.330979
v 1.539006 6.518830 1.157474
v -5.994990 6.217599 10.382799
v -5.147040 6.795666 -3.317503
v -0.235978 6.876418 11.771886
v 2.682388 6.079059 -1.196255
v 0.747050 4.806202 -3.317503
v 2.315870 5.039111 -1.441832
v -5.997249 6.143329 3.569857
v -1.804494 6.673933 -3.317503
v -3.475618 6.536114 11.888061
v 4.209414 6.283580 7.426171
v 3.794974 5.911548 7.517992
v -1.690022 6.414723 -0.969332
v -0.165295 6.531982 7.840518
v -3.677656 6.488488 5.632914
v 1.216761 6.705635 5.794151
v 4.382181 4.816769 5.283997
v -5.997647 6.130236 7.712881
v -3.475618 6.739700 -3.317503
v -1.804495 6.673933 11.888061
v 4.257927 5.993602 3.183625
v 4.083825 5.478510 3.199935
v -5.994295 6.240459 -0.975173
v 0.653901 5.057321 11.782351
v -0.133606 6.396848 -3.317503
v -5.147040 6.795666 11.888061
v 2.539008 6.394879 10.036394
v 2.270849 5.819464 10.027266
v -0.122823 6.883051 3.312066
v -1.819217 6.740975 10.239764
v -1.161653 6.842042 5.621320
v 3.639503 6.226139 5.375699
v 3.545266 4.352611 7.342508
v 2.145996 4.391677 10.060712
v 2.851866 5.092765 9.245782
v 1.738279 4.233498 -1.430857
v 3.833510 4.118277 3.204081
v 2.733406 4.999818 1.072295
v 2.105590 6.571150 7.859592
v 0.476846 6.855382 10.187380
v 0.408132 6.689425 9.478264
v 2.467281 6.330193 9.403927
v -2.550874 6.539814 7.527357
v -4.322266 6.408055 10.385001
v -5.159335 6.187788 9.447265
v -1.868405 6.789813 9.274847
v -4.321336 6.235029 -0.988633
v -2.542065 6.692237 3.406282
v -5.157057 6.262696 1.327439
v -1.815359 6.515505 1.197964
v 0.659834 6.206122 -0.976745
v 2.160175 6.513905 3.300380
v 0.480598 6.588682 1.149104
v 2.539975 6.572468 1.110174
v 3.225599 6.342906 3.230960
v 1.033138 6.836637 3.325852
v -0.420255 6.205716 -0.973003
v -1.302139 6.630599 3.335584
v -3.856014 6.318250 3.566013
v -5.157753 6.443376 -0.973530
v -3.485950 6.399973 10.386074
v -5.158612 6.415132 10.383870
v -3.847060 6.112338 7.703302
v 1.462667 6.802174 10.191230
v -0.599795 6.841566 10.196665
v 0.978127 6.632449 7.965520
v 3.883162 4.894940 3.174438
v 1.833451 4.630894 -1.396784
v 2.064512 5.176505 10.082017
v 3.920277 4.978793 7.353691
v 3.172777 6.472143 7.685153
v -1.335091 6.550296 7.721145
v -3.485023 6.430469 -0.970808
v 1.618166 6.404818 -0.994844
vn 0.156300 0.985900 -0.059800
vn 0.094400 0.993400 0.065700
vn 0.070700 0.991800 0.106800
vn 0.199200 0.976500 -0.082700
vn 0.173000 0.984900 -0.010300
vn 0.029800 0.972600 -0.230500
vn 0.235400 0.963800 -0.125300
vn -0.184800 0.979200 0.083400
vn -0.119200 0.985000 -0.124900
vn -0.103400 0.993100 0.055500
vn 0.138800 0.972900 0.185000
vn -0.160200 0.987100 -0.002400
vn -0.219300 0.975600 0.006000
vn 0.124400 0.990000 0.066900
vn 0.175100 0.979200 -0.102700
vn 0.379200 0.923600 -0.056300
vn 0.058700 0.997600 0.036900
vn 0.136800 0.989800 0.039700
vn 0.280300 0.959600 -0.022700
vn 0.108700 0.988600 -0.104200
vn 0.002300 0.997500 0.070100
vn 0.278600 0.959900 0.031600
vn 0.019200 0.993900 0.108800
vn 0.163400 0.955400 -0.245800
vn 0.032300 0.984100 -0.174400
vn -0.014100 0.996300 -0.084400
vn -0.081600 0.996500 -0.016500
vn -0.034900 0.999400 0.002000
vn 0.020300 0.997900 0.060700
vn -0.089600 0.993800 -0.065600
vn -0.174400 0.984700 0.001200
vn -0.220400 0.964000 0.148800
vn 0.018700 0.999700 -0.016500
vn 0.012300 0.999900 -0.007500
vn -0.111900 0.989400 0.092800
vn 0.021300 0.999700 -0.012800
vn -0.036400 0.990800 0.130000
vn 0.083100 0.993900 -0.073100
vn -0.234800 0.961500 -0.142800
vn 0.149300 0.954000 -0.260100
vn -0.018500 0.992500 -0.121200
vn -0.060800 0.997200 0.043500
vn -0.012600 0.995700 -0.091300
vn 0.062900 0.998000 -0.007000
vn 0.079700 0.992900 -0.088700
vn 0.193500 0.975300 0.106800
vn 0.191100 0.970700 0.145400
vn -0.120800 0.990300 0.069000
vn -0.103100 0.989500 -0.101300
vn 0.041400 0.990800 -0.128900
vn -0.099600 0.979300 0.176000
vn -0.127700 0.991600 0.019200
vn -0.088100 0.994800 -0.051400
vn -0.088500 0.989900 0.110700
vn -0.129400 0.989900 -0.057200
vn 0.342300 0.922900 -0.176300
vn 0.006000 0.993500 0.114000
vn -0.031000 0.998700 0.040900
vn 0.355800 0.875900 0.325900
vn -0.089800 0.994500 -0.053600
vn 0.020200 0.970700 -0.239300
vn -0.097800 0.946200 -0.308300
vn -0.205200 0.975000 -0.085000
vn 0.140400 0.976700 -0.162300
vn 0.893800 -0.242800 -0.377100
vn 0.811300 -0.546900 0.206500
vn 0.689900 0.132700 0.711700
vn 0.851200 -0.166400 -0.497700
vn 0.902400 0.184800 -0.389300
vn 0.459600 -0.886800 0.048200
vn 0.916300 -0.296400 -0.269200
vn 0.624000 -0.744300 0.238100
vn 0.589900 -0.452000 0.669100
vn 0.708700 -0.635300 -0.306900
vn 0.981700 0.169600 -0.086700
vn 0.930300 -0.342900 -0.130200
vn 0.753800 -0.276500 -0.596100
vn 0.573500 -0.812100 -0.107900
vn 0.880400 0.223300 -0.418400
vn 0.722800 -0.148000 0.675000
vn 0.953900 0.277100 0.114900
vn 0.883900 -0.033800 0.466500
vn 0.935600 -0.028500 0.351900
vn 0.303100 -0.945800 0.116800
vn 0.730700 -0.210100 -0.649600
vn 0.754700 -0.005400 0.656100
vn 0.735000 0.002300 0.678100
vn 0.668000 -0.368900 0.646300
usemtl Material.007
s off
f 108//1 39//1 4//1 59//1
f 107//2 47//2 8//2 53//2
f 106//3 48//3 12//3 65//3
f 105//4 45//4 10//4 66//4
f 100//5 73//5 28//5 50//5
f 99//6 74//6 32//6 75//6
f 98//7 61//7 23//7 76//7
f 97//8 77//8 27//8 49//8
f 96//9 78//9 33//9 79//9
f 95//10 64//10 26//10 80//10
f 94//11 81//11 14//11 37//11
f 93//12 82//12 34//12 83//12
f 92//13 63//13 25//13 84//13
f 91//14 85//14 21//14 43//14
f 90//15 86//15 35//15 87//15
f 89//16 55//16 16//16 88//16
f 86//17 89//17 88//17 35//17
f 28//18 66//18 89//18 86//18
f 66//19 10//19 55//19 89//19
f 63//20 90//20 87//20 25//20
f 12//21 50//21 90//21 63//21
f 50//22 28//22 86//22 90//22
f 47//23 91//23 43//23 8//23
f 25//24 87//24 91//24 47//24
f 87//25 35//25 85//25 91//25
f 82//26 92//26 84//26 34//26
f 27//27 65//27 92//27 82//27
f 65//28 12//28 63//28 92//28
f 42//29 93//29 83//29 19//29
f 7//30 49//30 93//30 42//30
f 49//31 27//31 82//31 93//31
f 57//32 94//32 37//32 2//32
f 19//33 83//33 94//33 57//33
f 83//34 34//34 81//34 94//34
f 78//35 95//35 80//35 33//35
f 36//36 96//36 79//36 13//36
f 52//37 97//37 49//37 7//37
f 13//38 79//38 97//38 52//38
f 79//39 33//39 77//39 97//39
f 74//40 98//40 76//40 32//40
f 64//41 99//41 75//41 26//41
f 48//42 100//42 50//42 12//42
f 26//43 75//43 100//43 48//43
f 75//44 32//44 73//44 100//44
f 73//45 105//45 66//45 28//45
f 32//46 76//46 105//46 73//46
f 76//47 23//47 45//47 105//47
f 77//48 106//48 65//48 27//48
f 33//49 80//49 106//49 77//49
f 80//50 26//50 48//50 106//50
f 81//51 107//51 53//51 14//51
f 34//52 84//52 107//52 81//52
f 84//53 25//53 47//53 107//53
f 85//54 108//54 59//54 21//54
f 35//55 88//55 108//55 85//55
f 88//56 16//56 39//56 108//56
f 15//57 74//57 99//57 54//57
f 54//58 99//58 64//58 9//58
f 3//59 61//59 98//59 38//59
f 38//60 98//60 74//60 15//60
f 22//61 78//61 96//61 60//61
f 60//62 96//62 36//62 1//62
f 9//63 64//63 95//63 44//63
f 44//64 95//64 78//64 22//64
usemtl Material.006
f 18//65 41//65 39//65 16//65
f 104//66 67//66 29//66 51//66
f 103//67 68//67 30//67 69//67
f 102//68 70//68 17//68 40//68
f 101//69 71//69 31//69 72//69
f 11//70 56//70 55//70 10//70
f 56//71 18//71 16//71 55//71
f 24//72 46//72 45//72 23//72
f 62//73 24//73 23//73 61//73
f 56//74 101//74 72//74 18//74
f 11//75 51//75 101//75 56//75
f 51//76 29//76 71//76 101//76
f 41//77 102//77 40//77 6//77
f 18//78 72//78 102//78 41//78
f 72//79 31//79 70//79 102//79
f 62//80 103//80 69//80 24//80
f 46//81 104//81 51//81 11//81
f 24//82 69//82 104//82 46//82
f 69//83 30//83 67//83 104//83
f 45//84 46//84 11//84 10//84
f 39//85 41//85 6//85 4//85
f 20//86 68//86 103//86 58//86
f 58//87 103//87 62//87 5//87
f 5//88 62//88 61//88 3//88
