# Blender v2.74 (sub 0) OBJ File: 'Save.blend'
# www.blender.org
mtllib Morro-02.mtl
o Plane.001
v -5.982861 6.820024 7.268415
v 0.329985 -0.115008 7.268415
v -5.982861 6.616438 -7.268415
v 0.329985 -0.115008 -7.268415
v 1.027377 6.154049 7.268415
v 1.027377 6.357635 -7.268415
v 0.617735 5.457620 7.268415
v 0.617735 5.457620 -7.268415
v -5.998243 6.314219 0.000000
v 0.203150 2.722145 7.268415
v 0.304191 -0.113240 0.000000
v -2.639993 6.505295 -7.268415
v -2.639994 6.708881 7.268415
v 0.609916 5.941910 0.000000
v 0.203150 2.722145 -7.268415
v 0.039995 5.658250 0.000000
v -2.654446 6.030061 0.000000
v 0.213564 2.721431 0.000000
v -5.994992 6.421117 3.634208
v 0.393249 1.294884 7.268415
v 0.433161 -0.122081 -3.634208
v -4.311312 6.768240 -7.268415
v -0.969066 6.433067 7.268415
v 0.811139 6.044165 -3.634208
v 0.608311 4.108599 -7.268415
v 0.644929 5.448176 -3.634208
v -5.992682 6.497101 -3.634208
v 0.608311 4.108599 7.268415
v 0.294407 -0.112569 3.634208
v -0.969066 6.433067 -7.268415
v -4.311312 6.768240 7.268415
v 0.755526 6.015904 3.634208
v 0.393249 1.294884 -7.268415
v 0.265055 5.580094 3.634208
v -2.650098 6.376613 -3.634208
v -2.651319 6.336467 3.634208
v -4.326146 6.076880 0.000000
v -0.983483 5.958998 0.000000
v 0.341161 2.712684 -3.634208
v 0.470364 2.703826 3.634208
v 0.289600 4.130447 0.000000
v 0.173543 1.309945 0.000000
v 0.212268 1.307291 3.634208
v 0.621204 4.107715 3.634208
v 0.430711 4.120774 -3.634208
v -0.979534 6.292445 3.634208
v -4.323274 6.374925 3.634208
v -4.321432 6.435463 -3.634208
v -0.978020 6.138639 -3.634208
v 0.212299 1.307289 -3.634208
v -5.994990 6.217599 5.451312
v 0.349435 0.590773 7.268415
v 0.075603 -0.097569 -5.451312
v -5.147040 6.795666 -7.268415
v -0.133606 6.600434 7.268415
v 0.879807 6.079059 -5.451312
v 0.747050 4.806202 -7.268415
v 0.643319 5.448735 -5.451312
v -5.997249 6.143329 -1.817104
v 0.346323 3.419444 7.268415
v 0.226809 -0.107935 1.817104
v -1.804494 6.673933 -7.268415
v -3.475618 6.536114 7.268415
v 0.727207 6.205100 1.817104
v 0.374422 2.003289 -7.268415
v 0.370042 5.747222 1.817104
v -2.648939 6.414723 -5.451312
v -2.653021 6.076922 1.817104
v -5.162226 6.296320 0.000000
v -1.818911 6.199864 0.000000
v 0.264651 2.717928 -5.451312
v 0.467825 2.704000 1.817104
v 0.592919 4.816769 0.000000
v 0.423672 1.999913 0.000000
v -5.997647 6.130236 1.817104
v 0.374422 2.003289 7.268415
v 0.112071 -0.100070 -1.817104
v -3.475618 6.739700 -7.268415
v -1.804495 6.673933 7.268415
v 0.711638 5.993602 -1.817104
v 0.346323 3.419444 -7.268415
v 0.557580 5.478510 -1.817104
v -5.994295 6.240459 -5.451312
v 0.747050 4.806202 7.268415
v 0.438498 -0.122447 5.451312
v -0.133606 6.396848 -7.268415
v -5.147040 6.795666 7.268415
v 0.856921 6.067430 5.451312
v 0.349435 0.590773 -7.268415
v 0.610752 5.460044 5.451312
v -2.653733 6.257112 -1.817104
v -2.649703 6.389612 5.451312
v -3.490169 6.261236 0.000000
v -0.148023 5.922779 0.000000
v 0.112996 2.728325 -1.817104
v 0.118523 2.727946 5.451312
v 0.189841 3.430171 0.000000
v 0.022824 0.613163 0.000000
v 0.334049 1.298942 1.817104
v 0.061442 1.317630 5.451312
v 0.248881 2.011895 3.634208
v 0.018407 0.613466 3.634208
v 0.258689 4.132566 1.817104
v 0.578739 4.110626 5.451312
v 0.248931 4.840350 3.634208
v 0.517436 3.407714 3.634208
v 0.463141 4.118551 -5.451312
v 0.467140 4.118277 -1.817104
v 0.064102 4.853021 -3.634208
v 0.397818 3.415914 -3.634208
v -0.980623 6.256645 1.817104
v -0.976619 6.388305 5.451312
v -1.815421 6.314650 3.634208
v -0.143454 6.073010 3.634208
v -4.325488 6.098530 1.817104
v -4.322266 6.408055 5.451312
v -5.159335 6.187788 3.634208
v -3.487239 6.357595 3.634208
v -4.321336 6.235029 -5.451312
v -4.325776 6.292652 -1.817104
v -5.157057 6.262696 -3.634208
v -3.485788 6.201692 -3.634208
v -0.975968 6.206122 -5.451312
v -0.981542 6.022813 -1.817104
v -1.814136 6.153307 -3.634208
v -0.141775 6.331796 -3.634208
v 0.149424 1.311599 -5.451312
v 0.371786 1.296355 -1.817104
v 0.088719 2.022875 -3.634208
v 0.091035 0.608487 -3.634208
v 0.125294 0.606138 -1.817104
v 0.343261 2.005425 -1.817104
v 0.362829 2.004084 -5.451312
v -0.145202 6.015544 -1.817104
v -1.817626 6.242145 -1.817104
v -1.812542 6.205716 -5.451312
v -3.489881 6.067116 -1.817104
v -5.161559 6.318250 -1.817104
v -5.157753 6.443376 -5.451312
v -3.485950 6.399973 5.451312
v -5.158612 6.415132 5.451312
v -5.161629 6.112338 1.817104
v -0.140269 6.381312 5.451312
v -1.813226 6.386822 5.451312
v -1.816804 6.269160 1.817104
v 0.187449 3.430336 -1.817104
v 0.479245 4.824561 -1.817104
v 0.366514 4.832289 -5.451312
v 0.462811 3.411459 5.451312
v 0.469661 4.825218 5.451312
v 0.564750 4.818699 1.817104
v -0.074243 0.619817 5.451312
v 0.277123 2.009959 5.451312
v 0.268129 2.010576 1.817104
v -0.150435 0.625041 1.817104
v -0.124559 3.451725 1.817104
v 0.309858 3.421944 -5.451312
v -0.144538 6.240952 1.817104
v -3.489300 6.086206 1.817104
v -3.485023 6.430469 -5.451312
v -0.139555 6.404818 -5.451312
v 0.292050 0.594707 -5.451312
vn 0.164600 0.983100 0.080200
vn 0.147100 0.983100 0.108900
vn 0.142300 0.989200 0.034800
vn 0.010100 0.987300 -0.158300
vn 0.149100 0.983800 -0.099500
vn 0.012400 0.998900 -0.046200
vn 0.191000 0.976300 -0.102200
vn 0.138000 0.989400 0.044100
vn -0.106800 0.991700 -0.071000
vn 0.018800 0.999500 -0.026300
vn 0.135700 0.962400 0.235300
vn -0.087700 0.995900 0.023700
vn -0.212800 0.974800 0.067700
vn 0.139900 0.972400 0.186600
vn 0.138600 0.990300 0.007600
vn 0.167700 0.980400 0.103700
vn -0.109700 0.987000 0.117100
vn 0.026000 0.998700 0.043100
vn 0.001700 0.999200 0.039800
vn 0.141100 0.990000 0.008600
vn -0.092000 0.993000 0.073500
vn 0.265300 0.963700 0.028400
vn 0.023900 0.988100 0.152000
vn 0.250200 0.967900 0.024300
vn 0.008500 0.999400 0.033000
vn 0.264200 0.961600 0.074000
vn 0.024600 0.999700 0.006000
vn 0.024600 0.999700 0.009100
vn 0.035400 0.996000 0.081800
vn -0.093400 0.994800 -0.040800
vn 0.144700 0.987400 0.064600
vn -0.218700 0.957000 0.190400
vn 0.018800 0.999600 -0.020900
vn 0.021300 0.999800 -0.005400
vn 0.015200 0.999700 -0.020800
vn 0.021400 0.999700 -0.006600
vn 0.021300 0.994700 0.100700
vn 0.147900 0.984000 -0.099400
vn -0.102600 0.990100 -0.095700
vn 0.133400 0.985000 -0.109800
vn 0.014700 0.999300 -0.034500
vn -0.211600 0.976900 -0.031000
vn -0.101000 0.991400 -0.083100
vn 0.020800 0.999500 -0.022400
vn 0.030600 0.985500 -0.167000
vn 0.139200 0.989600 0.035900
vn 0.052200 0.993900 0.097200
vn -0.102200 0.993900 0.042000
vn 0.017500 0.988700 -0.149000
vn 0.018000 0.989300 -0.144600
vn -0.096800 0.969700 0.224300
vn 0.022900 0.999700 0.007800
vn -0.094500 0.992900 0.072900
vn -0.096600 0.993500 0.059500
vn -0.227900 0.973000 0.037300
vn 0.296800 0.954300 0.034100
vn 0.141100 0.985800 -0.090700
vn 0.022300 0.986100 -0.164600
vn 0.330800 0.938900 -0.095100
vn -0.095200 0.992900 -0.071700
vn 0.020200 0.979600 -0.199800
vn -0.099500 0.960700 -0.259200
vn -0.095900 0.987700 -0.123200
vn 0.140900 0.980800 -0.134800
vn 0.982500 -0.165800 0.085300
vn 0.950000 -0.312000 0.014500
vn 0.991100 -0.133200 -0.006900
vn 0.920900 0.389500 0.014800
vn 0.909800 0.410600 0.060800
vn 0.991500 -0.130300 -0.001400
vn 0.983500 -0.177600 0.033600
vn 0.880900 0.473200 -0.012000
vn 0.913900 -0.405800 0.015300
vn 0.947900 0.315300 -0.045400
vn 0.956700 -0.269900 0.109100
vn 0.989200 -0.029500 0.143400
vn 0.964200 0.237600 -0.117800
vn 0.988500 -0.092200 0.120000
vn 0.988100 -0.137200 0.070100
vn 0.988100 0.105500 -0.111700
vn 0.972000 0.222500 0.075500
vn 0.965400 -0.255600 -0.052400
vn 0.958200 -0.274400 0.080800
vn 0.982600 0.183900 -0.023900
vn 0.999900 -0.015700 -0.007300
vn 0.955500 0.291300 -0.046600
vn 0.987200 -0.156400 0.032400
vn 0.982700 0.184800 -0.013300
vn 0.992500 -0.109100 0.054400
vn 0.996300 -0.063600 0.058200
vn 0.732700 -0.664200 0.148300
vn 0.959800 -0.276700 0.047800
vn 0.724600 -0.687200 -0.052100
vn 0.811800 -0.573300 -0.110700
vn 0.974600 -0.218700 0.047400
vn 0.963500 -0.263400 0.047300
vn 0.999000 -0.035900 -0.028400
vn 0.881600 -0.465200 -0.079300
vn 0.949200 0.301200 0.091200
vn 0.975100 -0.220900 0.017400
vn 0.988600 -0.115000 0.097100
vn 0.814200 -0.576300 0.070600
vn 0.948800 0.304000 0.085500
vn 0.987500 -0.155100 0.026700
vn 0.981200 -0.112200 -0.157100
vn 0.917800 0.387700 -0.085900
vn 0.987300 0.105700 0.118600
vn 0.998800 0.046600 -0.012800
vn 0.971000 -0.229900 0.066100
vn 0.995100 -0.044400 0.088900
vn 0.999600 0.007400 -0.027100
vn 0.956800 -0.290900 0.004500
vn 0.999000 0.020700 0.038700
vn 0.907300 -0.420500 0.003300
vn 0.895800 -0.444300 -0.012000
vn 0.911200 0.408000 -0.057500
vn 0.940000 -0.328700 0.091500
vn 0.911200 -0.321400 -0.257900
vn 0.924100 0.347200 -0.159700
vn 0.956800 -0.286700 0.048800
vn 0.991200 -0.131700 -0.015300
vn 0.996400 -0.072100 -0.045300
vn 0.624600 -0.780900 -0.001200
vn 0.994200 0.069100 0.082000
vn 0.999200 0.015100 0.037900
vn 0.995200 0.087900 -0.042600
vn 0.921300 -0.389000 0.000200
vn 0.983400 -0.138200 -0.117200
vn 0.973500 0.223500 -0.048000
vn 0.943600 0.321400 -0.079900
vn 0.971100 -0.124300 -0.203600
vn 0.996200 -0.020900 -0.084300
vn 0.996900 -0.009100 -0.078100
vn 0.942900 -0.332900 0.008500
vn 0.964600 -0.262600 0.023500
vn 0.892900 -0.449100 -0.033200
usemtl Material.007
s off
f 161//1 56//1 6//1 86//1
f 160//2 67//2 12//2 78//2
f 159//3 68//3 17//3 93//3
f 158//4 64//4 14//4 94//4
f 145//5 111//5 38//5 70//5
f 144//6 112//6 46//6 113//6
f 143//7 88//7 32//7 114//7
f 142//8 115//8 37//8 69//8
f 141//9 116//9 47//9 117//9
f 140//10 92//10 36//10 118//10
f 139//11 119//11 22//11 54//11
f 138//12 120//12 48//12 121//12
f 137//13 91//13 35//13 122//13
f 136//14 123//14 30//14 62//14
f 135//15 124//15 49//15 125//15
f 134//16 80//16 24//16 126//16
f 124//17 134//17 126//17 49//17
f 38//18 94//18 134//18 124//18
f 94//19 14//19 80//19 134//19
f 91//20 135//20 125//20 35//20
f 17//21 70//21 135//21 91//21
f 70//22 38//22 124//22 135//22
f 67//23 136//23 62//23 12//23
f 35//24 125//24 136//24 67//24
f 125//25 49//25 123//25 136//25
f 120//26 137//26 122//26 48//26
f 37//27 93//27 137//27 120//27
f 93//28 17//28 91//28 137//28
f 59//29 138//29 121//29 27//29
f 9//30 69//30 138//30 59//30
f 69//31 37//31 120//31 138//31
f 83//32 139//32 54//32 3//32
f 27//33 121//33 139//33 83//33
f 121//34 48//34 119//34 139//34
f 116//35 140//35 118//35 47//35
f 51//36 141//36 117//36 19//36
f 75//37 142//37 69//37 9//37
f 19//38 117//38 142//38 75//38
f 117//39 47//39 115//39 142//39
f 112//40 143//40 114//40 46//40
f 92//41 144//41 113//41 36//41
f 68//42 145//42 70//42 17//42
f 36//43 113//43 145//43 68//43
f 113//44 46//44 111//44 145//44
f 111//45 158//45 94//45 38//45
f 46//46 114//46 158//46 111//46
f 114//47 32//47 64//47 158//47
f 115//48 159//48 93//48 37//48
f 47//49 118//49 159//49 115//49
f 118//50 36//50 68//50 159//50
f 119//51 160//51 78//51 22//51
f 48//52 122//52 160//52 119//52
f 122//53 35//53 67//53 160//53
f 123//54 161//54 86//54 30//54
f 49//55 126//55 161//55 123//55
f 126//56 24//56 56//56 161//56
f 23//57 112//57 144//57 79//57
f 79//58 144//58 92//58 13//58
f 5//59 88//59 143//59 55//59
f 55//60 143//60 112//60 23//60
f 31//61 116//61 141//61 87//61
f 87//62 141//62 51//62 1//62
f 13//63 92//63 140//63 63//63
f 63//64 140//64 116//64 31//64
usemtl Material.001
f 162//65 53//65 4//65 89//65
f 26//66 58//66 56//66 24//66
f 157//67 71//67 15//67 81//67
f 156//68 72//68 18//68 97//68
f 155//69 61//69 11//69 98//69
f 154//70 99//70 42//70 74//70
f 153//71 100//71 43//71 101//71
f 152//72 85//72 29//72 102//72
f 151//73 103//73 41//73 73//73
f 150//74 104//74 44//74 105//74
f 149//75 96//75 40//75 106//75
f 148//76 107//76 25//76 57//76
f 147//77 108//77 45//77 109//77
f 146//78 95//78 39//78 110//78
f 133//79 127//79 33//79 65//79
f 132//80 128//80 50//80 129//80
f 131//81 77//81 21//81 130//81
f 128//82 131//82 130//82 50//82
f 42//83 98//83 131//83 128//83
f 98//84 11//84 77//84 131//84
f 95//85 132//85 129//85 39//85
f 18//86 74//86 132//86 95//86
f 74//87 42//87 128//87 132//87
f 71//88 133//88 65//88 15//88
f 39//89 129//89 133//89 71//89
f 129//90 50//90 127//90 133//90
f 16//91 82//91 80//91 14//91
f 82//92 26//92 24//92 80//92
f 34//93 66//93 64//93 32//93
f 90//94 34//94 32//94 88//94
f 108//95 146//95 110//95 45//95
f 41//96 97//96 146//96 108//96
f 97//97 18//97 95//97 146//97
f 82//98 147//98 109//98 26//98
f 16//99 73//99 147//99 82//99
f 73//100 41//100 108//100 147//100
f 58//101 148//101 57//101 8//101
f 26//102 109//102 148//102 58//102
f 109//103 45//103 107//103 148//103
f 104//104 149//104 106//104 44//104
f 90//105 150//105 105//105 34//105
f 66//106 151//106 73//106 16//106
f 34//107 105//107 151//107 66//107
f 105//108 44//108 103//108 151//108
f 100//109 152//109 102//109 43//109
f 96//110 153//110 101//110 40//110
f 72//111 154//111 74//111 18//111
f 40//112 101//112 154//112 72//112
f 101//113 43//113 99//113 154//113
f 99//114 155//114 98//114 42//114
f 43//115 102//115 155//115 99//115
f 102//116 29//116 61//116 155//116
f 103//117 156//117 97//117 41//117
f 44//118 106//118 156//118 103//118
f 106//119 40//119 72//119 156//119
f 107//120 157//120 81//120 25//120
f 45//121 110//121 157//121 107//121
f 110//122 39//122 71//122 157//122
f 64//123 66//123 16//123 14//123
f 127//124 162//124 89//124 33//124
f 50//125 130//125 162//125 127//125
f 130//126 21//126 53//126 162//126
f 56//127 58//127 8//127 6//127
f 20//128 100//128 153//128 76//128
f 76//129 153//129 96//129 10//129
f 2//130 85//130 152//130 52//130
f 52//131 152//131 100//131 20//131
f 28//132 104//132 150//132 84//132
f 84//133 150//133 90//133 7//133
f 10//134 96//134 149//134 60//134
f 60//135 149//135 104//135 28//135
f 7//136 90//136 88//136 5//136
