# Blender v2.74 (sub 0) OBJ File: 'Save.blend'
# www.blender.org
mtllib Morro-03.mtl
o Plane.001
v -5.982861 6.820024 7.268415
v 0.329985 -0.115008 7.268415
v -5.982861 6.616438 -7.268415
v 0.329985 -0.115008 -7.268415
v 1.027377 6.154049 7.268415
v 1.027377 6.357635 -7.268415
v 0.617735 5.457620 7.268415
v 0.617735 5.457620 -7.268415
v -5.470080 6.314219 0.000000
v 0.203150 2.722145 7.268415
v 4.456611 -0.113240 0.000000
v -2.639993 6.505295 -7.268415
v -2.639994 6.708881 7.268415
v 4.762336 5.941910 0.000000
v 0.203150 2.722145 -7.268415
v 3.991064 5.658250 0.000000
v 0.297489 5.879466 0.292458
v 4.365983 2.721431 0.000000
v -5.994992 6.421117 3.634208
v 0.393249 1.294884 7.268415
v 3.247800 -0.122081 -3.634208
v -4.311312 6.768240 -7.268415
v -0.969066 6.433067 7.268415
v 3.623635 6.044165 -3.634208
v 0.608311 4.108599 -7.268415
v 3.445302 5.448176 -3.634208
v -5.992682 6.497101 -3.634208
v 0.608311 4.108599 7.268415
v 3.110086 -0.112569 3.634208
v -0.969066 6.433067 -7.268415
v -4.311312 6.768240 7.268415
v 3.558496 5.953875 3.754668
v 0.393249 1.294884 -7.268415
v 3.047247 5.479687 3.829200
v -0.486733 6.376613 -3.634208
v -0.506734 6.222397 3.855733
v -2.184491 6.076880 0.000000
v 2.620513 5.827236 0.255886
v 3.155822 2.712684 -3.634208
v 3.280232 2.725204 3.607931
v 3.980942 4.130447 0.000000
v 4.099792 1.309945 0.000000
v 2.995662 1.307291 3.634208
v 3.306318 4.129127 3.607889
v 3.122539 4.120774 -3.634208
v 1.644050 6.129189 3.951254
v -3.098899 6.374925 3.634208
v -3.100293 6.435463 -3.634208
v 1.680033 6.138639 -3.634208
v 2.995692 1.307289 -3.634208
v -5.994990 6.217599 5.451312
v 0.349435 0.590773 7.268415
v 1.880733 -0.097569 -5.451312
v -5.147040 6.795666 -7.268415
v -0.133606 6.600434 7.268415
v 2.682388 6.079059 -5.451312
v 0.747050 4.806202 -7.268415
v 2.315870 5.039111 -5.646788
v -5.997249 6.143329 -1.817104
v 0.346323 3.419444 7.268415
v 3.773793 -0.107935 1.817104
v -1.804494 6.673933 -7.268415
v -3.475618 6.536114 7.268415
v 4.257480 6.154001 1.916339
v 0.374422 2.003289 -7.268415
v 3.891241 5.652023 2.001982
v -1.690022 6.414723 -5.451312
v 0.079094 5.873137 2.212858
v -3.606374 6.296320 0.000000
v 1.465652 6.034655 0.320840
v 1.957014 2.322173 -5.640170
v 4.008976 2.704000 1.817104
v 4.382181 4.816769 0.000000
v 4.337305 1.999913 0.000000
v -5.997647 6.130236 1.817104
v 0.374422 2.003289 7.268415
v 3.655974 -0.100069 -1.817104
v -3.475618 6.739700 -7.268415
v -1.804495 6.673933 7.268415
v 4.257927 5.993602 -1.817104
v 0.346323 3.419444 -7.268415
v 4.083825 5.478510 -1.817104
v -5.994295 6.240459 -5.451312
v 0.747050 4.806202 7.268415
v 2.245863 -0.122447 5.451312
v -0.133606 6.396848 -7.268415
v -5.147040 6.795666 7.268415
v 2.660471 6.067430 5.451312
v 0.349435 0.590773 -7.268415
v 2.404171 5.460044 5.451312
v 0.109360 6.257112 -1.817104
v -1.688884 6.389612 5.451312
v -0.915870 6.179442 0.158846
v 3.759724 5.902037 0.040280
v 3.659568 2.728325 -1.817104
v 1.926476 2.727946 5.451312
v 4.117316 3.430171 0.000000
v 4.175243 0.613163 0.000000
v 3.827070 1.298942 1.817104
v 1.837477 1.317631 5.451312
v 3.031996 2.025819 3.617094
v 2.834091 0.613466 3.634208
v 3.626889 4.132566 1.817104
v 2.250248 4.110626 5.451312
v 2.967230 4.781756 3.758056
v 3.295906 3.434463 3.601328
v 1.918930 3.371289 -5.807912
v 3.833510 4.118277 -1.817104
v 2.787859 4.853021 -3.634208
v 3.181302 3.415914 -3.634208
v 2.299197 6.049210 2.219948
v 0.650102 6.388305 5.451312
v 0.606384 6.154963 3.944324
v 2.612068 5.939866 3.892777
v -2.387185 6.098530 1.817104
v -4.322266 6.408055 5.451312
v -5.159335 6.187788 3.634208
v -1.708080 6.357595 3.634208
v -4.321336 6.235029 -5.451312
v -2.393844 6.292652 -1.817104
v -5.157057 6.262696 -3.634208
v -1.698955 6.201692 -3.634208
v 0.659834 6.206122 -5.451312
v 2.342339 6.022813 -1.817104
v 0.642094 6.153307 -3.634208
v 2.629249 6.331796 -3.634208
v 1.925060 1.311599 -5.451312
v 3.862815 1.296355 -1.817104
v 2.872992 2.022875 -3.634208
v 2.906427 0.608487 -3.634208
v 3.671828 0.606138 -1.817104
v 3.839802 2.005425 -1.817104
v 2.136296 2.004084 -5.451312
v 3.347030 6.015544 -1.817104
v 1.253657 6.242144 -1.817104
v -0.420255 6.205716 -5.451312
v -1.093123 6.067116 -1.817104
v -3.856014 6.318250 -1.817104
v -5.157753 6.443376 -5.451312
v -3.485950 6.399973 5.451312
v -5.158612 6.415132 5.451312
v -3.847060 6.112338 1.817104
v 1.618780 6.381312 5.451312
v -0.431114 6.386822 5.451312
v 1.207955 6.012861 2.314842
v 3.686451 3.430336 -1.817104
v 3.909268 4.824561 -1.817104
v 1.915813 4.237799 -5.735008
v 2.236186 3.411459 5.451312
v 2.194817 4.825218 5.451312
v 3.989984 4.790873 1.871145
v 1.733685 0.619817 5.451312
v 2.052339 2.009959 5.451312
v 3.766656 2.010576 1.817104
v 3.394154 0.625041 1.817104
v 3.360444 3.458633 1.808612
v 1.910298 2.823422 -5.736932
v 3.313572 6.092577 2.105253
v -1.115391 5.958013 2.066057
v -3.485023 6.430469 -5.451312
v 1.618166 6.404818 -5.451312
v 2.095857 0.594707 -5.451312
vn 0.161400 0.983800 -0.078000
vn 0.094300 0.991900 0.084700
vn 0.148900 0.986000 0.074900
vn -0.065200 0.991100 -0.115800
vn 0.073100 0.996500 -0.039700
vn 0.011800 0.988100 -0.153300
vn 0.142800 0.986100 -0.085100
vn 0.080600 0.995300 0.054300
vn -0.061800 0.993800 -0.092000
vn 0.049800 0.998600 -0.018100
vn 0.135700 0.962400 0.235300
vn -0.041700 0.998000 0.047000
vn -0.148400 0.981900 0.117700
vn 0.124100 0.988500 0.086200
vn 0.109300 0.993500 -0.030900
vn 0.160300 0.986300 0.039900
vn -0.093600 0.983900 0.152500
vn -0.023100 0.996300 0.082400
vn -0.008400 0.998900 0.047000
vn 0.104200 0.994200 -0.026200
vn -0.061600 0.988000 0.141900
vn 0.188400 0.979500 0.071800
vn 0.019000 0.990000 0.140000
vn 0.176700 0.980500 -0.085800
vn 0.006700 0.999600 0.029100
vn 0.167600 0.985800 0.014700
vn 0.046400 0.998700 0.022500
vn 0.042000 0.997300 0.061000
vn 0.019900 0.997000 0.074700
vn -0.039200 0.998700 -0.032600
vn 0.084500 0.994900 0.054400
vn -0.218700 0.957000 0.190400
vn 0.018800 0.999600 -0.020900
vn 0.012300 0.999900 -0.009600
vn 0.011400 0.999900 -0.011400
vn 0.021400 0.999700 -0.006600
vn 0.008900 0.994700 0.102600
vn 0.083600 0.994000 -0.070100
vn -0.048800 0.991200 -0.123100
vn 0.094600 0.982000 -0.163500
vn 0.033300 0.994000 -0.104000
vn -0.126900 0.991900 -0.008300
vn -0.018700 0.987700 -0.155100
vn -0.007800 0.997600 -0.068800
vn -0.072000 0.990700 -0.115200
vn 0.077700 0.995700 0.050500
vn -0.024600 0.995900 0.087400
vn 0.006200 0.998500 0.054200
vn 0.074000 0.983000 -0.167800
vn 0.118000 0.975800 -0.184300
vn -0.096800 0.969700 0.224300
vn 0.017100 0.999800 -0.006400
vn -0.052500 0.991900 0.116000
vn -0.089300 0.985800 0.142500
vn -0.199000 0.968700 0.148700
vn 0.283400 0.951000 -0.124000
vn 0.123900 0.992200 0.011400
vn 0.017800 0.988000 -0.153500
vn 0.318400 0.922300 0.219000
vn -0.087500 0.984400 -0.152700
vn 0.020200 0.979600 -0.199800
vn -0.099500 0.960700 -0.259200
vn -0.061000 0.988300 -0.139600
vn 0.140900 0.980800 -0.134800
vn 0.735300 -0.123400 -0.666400
vn 0.864500 -0.234800 -0.444500
vn 0.667200 -0.113100 -0.736200
vn 0.824400 0.506900 0.251700
vn 0.855700 0.387600 0.342900
vn 0.966800 -0.122200 0.224400
vn 0.853800 -0.146000 0.499700
vn 0.795300 0.426900 0.430400
vn 0.853800 -0.492200 0.169600
vn 0.870600 0.201900 0.448700
vn 0.822400 -0.189600 0.536400
vn 0.761900 -0.035900 -0.646700
vn 0.882100 0.158800 -0.443400
vn 0.963000 -0.035900 -0.267000
vn 0.737400 -0.101300 -0.667800
vn 0.889400 0.091000 -0.448100
vn 0.929900 0.210700 -0.301400
vn 0.896900 -0.181000 -0.403600
vn 0.976700 -0.081400 -0.198500
vn 0.927300 0.171900 -0.332500
vn 0.924900 -0.067200 -0.374300
vn 0.944700 0.099100 -0.312600
vn 0.969400 -0.148600 -0.195600
vn 0.702000 0.109200 -0.703700
vn 0.886200 -0.171700 -0.430300
vn 0.894100 -0.056200 -0.444400
vn 0.644700 -0.763000 -0.046100
vn 0.903700 -0.286700 -0.318100
vn 0.740300 -0.624800 0.248100
vn 0.769000 -0.520100 0.371800
vn 0.946700 -0.060000 -0.316600
vn 0.987600 -0.007600 -0.157100
vn 0.943900 0.148400 -0.295100
vn 0.772000 -0.514200 -0.373600
vn 0.983700 0.142500 -0.109600
vn 0.934000 -0.319900 -0.159000
vn 0.722200 -0.093000 -0.685400
vn 0.781700 -0.577000 -0.236700
vn 0.854000 0.202300 -0.479300
vn 0.867700 -0.017600 0.496800
vn 0.897500 -0.215400 0.384700
vn 0.956100 0.265600 0.123700
vn 0.893400 -0.047100 0.446700
vn 0.937000 -0.070400 0.342000
vn 0.838100 -0.159800 0.521600
vn 0.842500 -0.069300 0.534300
vn 0.952700 -0.182500 0.242900
vn 0.880100 -0.307600 0.361800
vn 0.917500 0.020200 0.397100
vn 0.931600 -0.243000 0.270200
vn 0.865400 -0.376200 0.331000
vn 0.871500 0.391600 0.295200
vn 0.951900 -0.091900 0.292400
vn 0.974700 -0.198300 0.103200
vn 0.898700 0.390600 0.199300
vn 0.665400 -0.187000 -0.722700
vn 0.864700 0.006100 -0.502300
vn 0.859500 -0.025900 -0.510500
vn 0.570100 -0.811200 0.130600
vn 0.740700 0.066200 -0.668500
vn 0.886900 0.051100 -0.459200
vn 0.855400 0.075900 -0.512300
vn 0.680600 -0.201300 -0.704500
vn 0.754700 -0.105600 0.647500
vn 0.721700 0.149200 0.675900
vn 0.717200 0.244000 0.652700
vn 0.787000 -0.082900 0.611300
vn 0.761200 -0.044900 0.646900
vn 0.746400 -0.046400 0.663900
vn 0.690700 -0.226500 0.686800
vn 0.709800 -0.141100 0.690100
vn 0.679100 -0.346800 0.647000
usemtl Material.007
s off
f 161//1 56//1 6//1 86//1
f 160//2 67//2 12//2 78//2
f 159//3 68//3 17//3 93//3
f 158//4 64//4 14//4 94//4
f 145//5 111//5 38//5 70//5
f 144//6 112//6 46//6 113//6
f 143//7 88//7 32//7 114//7
f 142//8 115//8 37//8 69//8
f 141//9 116//9 47//9 117//9
f 140//10 92//10 36//10 118//10
f 139//11 119//11 22//11 54//11
f 138//12 120//12 48//12 121//12
f 137//13 91//13 35//13 122//13
f 136//14 123//14 30//14 62//14
f 135//15 124//15 49//15 125//15
f 134//16 80//16 24//16 126//16
f 124//17 134//17 126//17 49//17
f 38//18 94//18 134//18 124//18
f 94//19 14//19 80//19 134//19
f 91//20 135//20 125//20 35//20
f 17//21 70//21 135//21 91//21
f 70//22 38//22 124//22 135//22
f 67//23 136//23 62//23 12//23
f 35//24 125//24 136//24 67//24
f 125//25 49//25 123//25 136//25
f 120//26 137//26 122//26 48//26
f 37//27 93//27 137//27 120//27
f 93//28 17//28 91//28 137//28
f 59//29 138//29 121//29 27//29
f 9//30 69//30 138//30 59//30
f 69//31 37//31 120//31 138//31
f 83//32 139//32 54//32 3//32
f 27//33 121//33 139//33 83//33
f 121//34 48//34 119//34 139//34
f 116//35 140//35 118//35 47//35
f 51//36 141//36 117//36 19//36
f 75//37 142//37 69//37 9//37
f 19//38 117//38 142//38 75//38
f 117//39 47//39 115//39 142//39
f 112//40 143//40 114//40 46//40
f 92//41 144//41 113//41 36//41
f 68//42 145//42 70//42 17//42
f 36//43 113//43 145//43 68//43
f 113//44 46//44 111//44 145//44
f 111//45 158//45 94//45 38//45
f 46//46 114//46 158//46 111//46
f 114//47 32//47 64//47 158//47
f 115//48 159//48 93//48 37//48
f 47//49 118//49 159//49 115//49
f 118//50 36//50 68//50 159//50
f 119//51 160//51 78//51 22//51
f 48//52 122//52 160//52 119//52
f 122//53 35//53 67//53 160//53
f 123//54 161//54 86//54 30//54
f 49//55 126//55 161//55 123//55
f 126//56 24//56 56//56 161//56
f 23//57 112//57 144//57 79//57
f 79//58 144//58 92//58 13//58
f 5//59 88//59 143//59 55//59
f 55//60 143//60 112//60 23//60
f 31//61 116//61 141//61 87//61
f 87//62 141//62 51//62 1//62
f 13//63 92//63 140//63 63//63
f 63//64 140//64 116//64 31//64
usemtl Material.006
f 162//65 53//65 4//65 89//65
f 26//66 58//66 56//66 24//66
f 157//67 71//67 15//67 81//67
f 156//68 72//68 18//68 97//68
f 155//69 61//69 11//69 98//69
f 154//70 99//70 42//70 74//70
f 153//71 100//71 43//71 101//71
f 152//72 85//72 29//72 102//72
f 151//73 103//73 41//73 73//73
f 150//74 104//74 44//74 105//74
f 149//75 96//75 40//75 106//75
f 148//76 107//76 25//76 57//76
f 147//77 108//77 45//77 109//77
f 146//78 95//78 39//78 110//78
f 133//79 127//79 33//79 65//79
f 132//80 128//80 50//80 129//80
f 131//81 77//81 21//81 130//81
f 128//82 131//82 130//82 50//82
f 42//83 98//83 131//83 128//83
f 98//84 11//84 77//84 131//84
f 95//85 132//85 129//85 39//85
f 18//86 74//86 132//86 95//86
f 74//87 42//87 128//87 132//87
f 71//88 133//88 65//88 15//88
f 39//89 129//89 133//89 71//89
f 129//90 50//90 127//90 133//90
f 16//91 82//91 80//91 14//91
f 82//92 26//92 24//92 80//92
f 34//93 66//93 64//93 32//93
f 90//94 34//94 32//94 88//94
f 108//95 146//95 110//95 45//95
f 41//96 97//96 146//96 108//96
f 97//97 18//97 95//97 146//97
f 82//98 147//98 109//98 26//98
f 16//99 73//99 147//99 82//99
f 73//100 41//100 108//100 147//100
f 58//101 148//101 57//101 8//101
f 26//102 109//102 148//102 58//102
f 109//103 45//103 107//103 148//103
f 104//104 149//104 106//104 44//104
f 90//105 150//105 105//105 34//105
f 66//106 151//106 73//106 16//106
f 34//107 105//107 151//107 66//107
f 105//108 44//108 103//108 151//108
f 100//109 152//109 102//109 43//109
f 96//110 153//110 101//110 40//110
f 72//111 154//111 74//111 18//111
f 40//112 101//112 154//112 72//112
f 101//113 43//113 99//113 154//113
f 99//114 155//114 98//114 42//114
f 43//115 102//115 155//115 99//115
f 102//116 29//116 61//116 155//116
f 103//117 156//117 97//117 41//117
f 44//118 106//118 156//118 103//118
f 106//119 40//119 72//119 156//119
f 107//120 157//120 81//120 25//120
f 45//121 110//121 157//121 107//121
f 110//122 39//122 71//122 157//122
f 64//123 66//123 16//123 14//123
f 127//124 162//124 89//124 33//124
f 50//125 130//125 162//125 127//125
f 130//126 21//126 53//126 162//126
f 56//127 58//127 8//127 6//127
f 20//128 100//128 153//128 76//128
f 76//129 153//129 96//129 10//129
f 2//130 85//130 152//130 52//130
f 52//131 152//131 100//131 20//131
f 28//132 104//132 150//132 84//132
f 84//133 150//133 90//133 7//133
f 10//134 96//134 149//134 60//134
f 60//135 149//135 104//135 28//135
f 7//136 90//136 88//136 5//136
