# Blender v2.74 (sub 0) OBJ File: ''
# www.blender.org
o Cylinder
v 0.000000 -1.000000 -1.000000
v 0.951057 -1.000000 -0.309017
v 0.587785 -1.000000 0.809017
v -0.587785 -1.000000 0.809017
v -0.951056 -1.000000 -0.309017
v 0.893191 1.648246 -0.290215
v -0.000000 1.648246 -0.939156
v 0.552022 1.648246 0.759793
v -0.552022 1.648246 0.759793
v -0.893191 1.648246 -0.290215
v 0.951057 1.737075 -0.309017
v 0.000000 1.737075 -1.000000
v 0.587785 1.737075 0.809017
v -0.587785 1.737075 0.809017
v -0.951056 1.737075 -0.309017
v 0.893191 1.737075 -0.290215
v -0.000000 1.737075 -0.939156
v 0.552022 1.737075 0.759793
v -0.552022 1.737075 0.759793
v -0.893191 1.737075 -0.290215
v -0.000000 -1.000000 -0.000000
v -0.000000 1.648246 -0.000000
v -0.000000 -0.113346 -0.947930
v -0.000000 0.761652 -0.946318
v 0.900002 0.761652 -0.292428
v 0.901535 -0.113346 -0.292926
v 0.556232 0.761652 0.765588
v 0.557179 -0.113346 0.766892
v -0.556232 0.761652 0.765588
v -0.557179 -0.113346 0.766892
v -0.901535 -0.113346 -0.292927
v -0.900002 0.761652 -0.292429
vt 0.597342 0.023717
vt 0.597342 0.170812
vt 0.406032 0.170812
vt 0.406032 0.023717
vt 0.214631 0.170812
vt 0.214631 0.023717
vt 0.852963 0.921213
vt 0.927784 0.700359
vt 0.951295 0.689680
vt 0.870385 0.940274
vt 0.978048 0.023717
vt 0.978048 0.170812
vt 0.788717 0.170812
vt 0.788717 0.023717
vt 0.406032 0.314951
vt 0.406032 0.476683
vt 0.214631 0.476683
vt 0.214631 0.314951
vt 0.025144 0.476683
vt 0.025144 0.314951
vt 0.597342 0.314951
vt 0.597342 0.476683
vt 0.788717 0.314951
vt 0.788717 0.476683
vt 0.978048 0.314951
vt 0.978048 0.476683
vt 0.740860 0.560952
vt 0.737969 0.535292
vt 0.550513 0.695648
vt 0.525215 0.690468
vt 0.619796 0.918302
vt 0.607053 0.940761
vt 0.877882 0.951298
vt 0.598884 0.951298
vt 0.512670 0.685956
vt 0.738384 0.521966
vt 0.964097 0.685956
vt 0.113200 0.546448
vt 0.374158 0.546448
vt 0.243679 0.726036
vt 0.032560 0.794633
vt 0.243679 0.948020
vt 0.454798 0.794633
vt 0.738383 0.759295
vt 0.025144 0.170812
vt 0.025144 0.023717
vn -0.000000 0.047500 0.998900
vn -0.950000 0.047500 0.308700
vn -0.587800 0.000000 0.809000
vn 0.587100 0.047500 -0.808100
vn -0.950100 -0.044500 0.308700
vn -0.587200 -0.044500 -0.808200
vn -0.000000 -0.044500 0.999000
vn 0.950100 -0.044500 0.308700
vn 0.587200 -0.044500 -0.808200
vn -0.951100 0.000000 -0.309000
vn 0.000000 0.000000 -1.000000
vn 0.951100 0.000000 -0.309000
vn 0.587800 0.000000 0.809000
vn 0.000000 1.000000 0.000000
vn 0.950000 0.047500 0.308700
vn 0.000000 -1.000000 -0.000000
vn -0.587100 0.047500 -0.808100
vn -0.951100 0.001500 0.309000
vn -0.587800 0.001500 -0.809000
vn -0.000000 0.001500 1.000000
vn 0.951100 0.001500 0.309000
vn 0.587800 0.001500 -0.809000
s off
f 3/1/1 28/2/1 30/3/1 4/4/1
f 4/4/2 30/3/2 31/5/2 5/6/2
f 7/7/3 6/8/3 16/9/3 17/10/3
f 1/11/4 23/12/4 26/13/4 2/14/4
f 29/15/5 14/16/5 15/17/5 32/18/5
f 32/18/6 15/17/6 12/19/6 24/20/6
f 27/21/7 13/22/7 14/16/7 29/15/7
f 25/23/8 11/24/8 13/22/8 27/21/8
f 24/25/9 12/26/9 11/24/9 25/23/9
f 6/8/10 8/27/10 18/28/10 16/9/10
f 8/27/11 9/29/11 19/30/11 18/28/11
f 9/29/12 10/31/12 20/32/12 19/30/12
f 10/31/13 7/7/13 17/10/13 20/32/13
f 12/33/14 15/34/14 20/32/14 17/10/14
f 15/34/14 14/35/14 19/30/14 20/32/14
f 14/35/14 13/36/14 18/28/14 19/30/14
f 13/36/14 11/37/14 16/9/14 18/28/14
f 11/37/14 12/33/14 17/10/14 16/9/14
f 2/14/15 26/13/15 28/2/15 3/1/15
f 5/38/16 1/39/16 21/40/16
f 4/41/16 5/38/16 21/40/16
f 3/42/16 4/41/16 21/40/16
f 2/43/16 3/42/16 21/40/16
f 1/39/16 2/43/16 21/40/16
f 7/7/14 10/31/14 22/44/14
f 10/31/14 9/29/14 22/44/14
f 9/29/14 8/27/14 22/44/14
f 8/27/14 6/8/14 22/44/14
f 6/8/14 7/7/14 22/44/14
f 5/6/17 31/5/17 23/45/17 1/46/17
f 29/15/18 32/18/18 31/5/18 30/3/18
f 32/18/19 24/20/19 23/45/19 31/5/19
f 27/21/20 29/15/20 30/3/20 28/2/20
f 25/23/21 27/21/21 28/2/21 26/13/21
f 24/25/22 25/23/22 26/13/22 23/12/22
