# Blender v2.74 (sub 0) OBJ File: 'Save.blend'
# www.blender.org
mtllib Rock_01.mtl
o Cube
v -2.418885 -0.533868 2.418885
v -1.126024 1.994010 0.740144
v -2.418885 -0.533868 -2.418885
v -1.229133 1.730808 -1.080495
v 2.501842 -0.517222 2.519637
v 1.309454 0.948199 1.236557
v 2.418885 -0.533868 -2.418885
v -2.447816 0.355346 1.975630
v -1.693288 1.832575 -0.277898
v -2.593950 -0.072215 -1.899604
v -2.864600 -0.533868 0.000000
v 1.914753 0.101391 -2.359089
v 0.000000 -0.533868 -2.418885
v 1.264213 1.804468 0.276075
v 2.439832 -0.046785 2.272988
v 3.154850 -0.458319 1.019258
v -0.299379 1.633349 1.521755
v 0.082957 -0.517222 2.519637
v -0.028759 -0.247998 2.530101
v 3.040534 -0.062037 0.948528
v 0.327084 0.281534 -2.104073
v -2.408872 0.228369 -0.128568
v -1.413867 1.740723 -0.541818
v -3.208014 -0.533868 1.566956
v -1.209442 -0.533868 -2.418885
v 1.707620 0.999591 0.561444
v 2.437073 -0.541330 -1.192980
v -0.553309 2.093277 1.179843
v 1.346992 -0.506268 2.585938
v -3.024000 -0.533868 -1.209442
v 1.209442 -0.533868 -2.418885
v 1.336410 1.827075 -0.271730
v 2.745188 -0.541330 1.577003
v 0.340400 1.668276 1.454097
v -1.209442 -0.533868 2.418885
v -0.266349 2.076182 0.968514
v 0.143681 2.601463 -0.115849
v 0.902944 0.008879 2.411108
v -1.339273 0.207318 2.168476
v 2.024822 0.156170 -1.009759
v 2.888610 -0.026055 1.417961
v -1.184119 0.026382 -2.258784
v 1.223360 0.368849 -1.918818
v -1.998181 0.834477 0.809248
v -2.655537 -0.284986 -1.059176
v 0.723219 1.812851 0.795270
v -0.472800 2.149324 0.971181
vn -0.579300 0.811500 0.076300
vn 0.132700 0.478700 -0.867900
vn 0.808300 -0.043700 0.587200
vn -0.746700 0.580900 0.323900
vn -0.159300 0.290800 0.943400
vn 0.096400 0.393400 0.914300
vn 0.549500 0.549300 0.629500
vn -0.188900 0.516500 0.835200
vn 0.846800 0.524200 -0.090400
vn 0.906000 0.413300 -0.090700
vn 0.594000 0.793700 0.131400
vn 0.000000 0.274800 -0.961500
vn -0.242400 0.547400 -0.801000
vn -0.754900 0.655400 -0.021800
vn -0.799400 0.597500 -0.062700
vn -0.711300 0.654700 -0.256000
vn -0.901400 0.413900 0.127200
vn -0.856700 0.480500 -0.187700
vn 0.037400 0.346800 -0.937200
vn 0.482100 0.832400 0.273200
vn 0.741300 0.590700 -0.318700
vn 0.881700 0.176200 -0.437700
vn -0.017000 0.470400 0.882300
vn -0.051800 -0.060200 0.996800
vn 0.317500 0.631400 -0.707500
vn -0.498200 0.863600 0.076700
vn 0.298700 0.881000 0.366900
vn 0.634600 0.646400 0.423500
vn 0.588000 0.538100 0.604000
vn 0.315900 0.878700 0.357900
vn 0.303400 0.807500 0.505900
vn 0.113600 0.651700 -0.749900
vn -0.096200 0.441500 0.892100
vn 0.939600 0.247700 0.236200
vn 0.000000 0.093700 -0.995600
vn -0.882500 0.162000 -0.441500
vn -0.842100 0.534500 -0.071600
vn -0.126600 0.747000 -0.652700
vn -0.277900 0.949200 0.147700
vn -0.860900 0.506100 -0.051000
vn 0.000000 0.360200 -0.932900
vn 0.910900 0.311100 0.271000
vn -0.220600 0.974900 -0.031700
vn -0.076600 -0.070500 0.994600
vn 0.055000 0.469300 0.881300
vn 0.085200 0.763500 0.640100
vn -0.083400 0.461400 0.883300
vn 0.782900 0.622100 -0.007800
vn -0.013500 0.327500 0.944700
vn -0.223700 0.689800 -0.688600
vn -0.699800 0.300300 0.648200
vn -0.858100 0.509100 0.066000
vn -0.767400 0.636700 -0.075400
vn 0.466000 0.818100 0.337100
vn 0.935700 0.325100 0.136700
vn 0.793300 0.541800 -0.277700
vn 0.062400 0.514400 0.855300
vn 0.025900 0.341200 0.939600
vn 0.064700 0.745000 -0.664000
vn 0.294100 0.811800 0.504500
vn 0.044400 0.957200 -0.286100
vn 0.023600 0.779800 0.625600
vn 0.589300 0.646700 0.484300
vn 0.461100 0.679100 0.571100
vn 0.551200 0.827500 0.106800
vn 0.420900 0.801100 0.425600
vn -0.441300 0.881600 -0.167600
vn -0.011700 0.568400 -0.822700
vn 0.000000 0.320100 0.947400
vn 0.881700 -0.103400 0.460300
vn -0.344000 0.459100 -0.819100
vn -0.595700 0.787900 0.155800
vn -0.633000 0.213100 -0.744300
vn -0.564900 0.555300 0.610400
vn -0.051400 0.627300 0.777100
usemtl Material.001
s off
f 45//1 30//1 11//1
f 21//2 43//2 31//2
f 41//3 33//3 16//3
f 9//4 44//4 2//4
f 19//5 39//5 35//5
f 15//6 38//6 29//6
f 6//7 34//7 38//7
f 17//8 28//8 39//8
f 12//9 40//9 27//9
f 32//10 40//10 12//10
f 26//11 41//11 20//11
f 42//12 25//12 3//12
f 10//13 4//13 42//13
f 8//14 44//14 24//14
f 8//15 2//15 44//15
f 23//16 4//16 10//16
f 9//17 22//17 44//17
f 22//18 11//18 24//18
f 42//19 21//19 13//19
f 6//20 15//20 41//20
f 14//21 20//21 40//21
f 40//22 20//22 16//22
f 17//23 19//23 38//23
f 19//24 18//24 29//24
f 21//25 37//25 32//25
f 37//26 23//26 47//26
f 34//27 46//27 36//27
f 6//28 26//28 46//28
f 26//29 14//29 46//29
f 36//30 47//30 28//30
f 37//31 36//31 46//31
f 37//32 21//32 4//32
f 39//33 8//33 1//33
f 15//34 5//34 33//34
f 12//35 7//35 31//35
f 10//36 3//36 30//36
f 23//37 45//37 22//37
f 12//38 43//38 32//38
f 28//39 47//39 2//39
f 22//40 45//40 11//40
f 13//41 21//41 31//41
f 20//42 41//42 16//42
f 47//43 9//43 2//43
f 18//44 19//44 35//44
f 5//45 15//45 29//45
f 15//46 6//46 38//46
f 19//47 17//47 39//47
f 7//48 12//48 27//48
f 14//49 26//49 20//49
f 10//50 42//50 3//50
f 1//51 8//51 24//51
f 45//52 23//52 10//52
f 44//53 22//53 24//53
f 25//12 42//12 13//12
f 26//54 6//54 41//54
f 32//55 14//55 40//55
f 27//56 40//56 16//56
f 34//57 17//57 38//57
f 38//58 19//58 29//58
f 43//59 21//59 32//59
f 47//60 36//60 37//60
f 23//61 9//61 47//61
f 17//62 34//62 36//62
f 34//63 6//63 46//63
f 17//64 36//64 28//64
f 14//65 32//65 37//65
f 37//66 46//66 14//66
f 4//67 23//67 37//67
f 21//68 42//68 4//68
f 35//69 39//69 1//69
f 41//70 15//70 33//70
f 43//71 12//71 31//71
f 45//72 10//72 30//72
f 9//73 23//73 22//73
f 2//74 39//74 28//74
f 39//75 2//75 8//75
